<?xml version="1.0" encoding="UTF-8" standalone="no"?>
<!DOCTYPE svg PUBLIC "-//W3C//DTD SVG 1.1//EN" "http://www.w3.org/Graphics/SVG/1.1/DTD/svg11.dtd">
<svg width="100%" height="100%" viewBox="0 0 325 79" version="1.1" xmlns="http://www.w3.org/2000/svg" xmlns:xlink="http://www.w3.org/1999/xlink" xml:space="preserve" xmlns:serif="http://www.serif.com/" style="fill-rule:evenodd;clip-rule:evenodd;stroke-linejoin:round;stroke-miterlimit:2;">
    <g id="Layer-1" serif:id="Layer 1">
        <g transform="matrix(1.03644,0,0,1.03644,95.2749,41.7795)">
            <path d="M0,-3.85C-0.6,-3.23 -1.48,-2.92 -2.65,-2.92L-6.55,-2.92L-6.55,-9.97L-2.65,-9.97C-1.49,-9.97 -0.61,-9.66 -0.01,-9.03C0.58,-8.4 0.88,-7.54 0.88,-6.43C0.88,-5.33 0.59,-4.47 0,-3.85M2.57,0.28C4.11,-0.45 5.23,-1.4 5.95,-2.57C6.67,-3.74 7.04,-5.21 7.04,-6.99C7.04,-9.45 6.18,-11.35 4.47,-12.7C2.76,-14.05 0.38,-14.72 -2.65,-14.72L-12.72,-14.72L-12.72,10.87L-6.55,10.87L-6.55,1.82L-3.21,1.82L1.3,10.87L7.91,10.87L7.91,10.61L2.57,0.28Z" style="fill:rgb(193,181,150);fill-rule:nonzero;"/>
        </g>
        <g transform="matrix(1.03644,0,0,1.03644,118.253,42.7537)">
            <path d="M0,0.85C-0.05,4.09 -1.13,5.72 -3.23,5.72C-4.31,5.72 -5.13,5.3 -5.68,4.48C-6.23,3.66 -6.5,2.38 -6.5,0.62L-6.49,-0.45C-6.32,-3.4 -5.25,-4.87 -3.27,-4.87C-1.09,-4.87 0,-3.16 0,0.25L0,0.85ZM3.46,-6.79C1.82,-8.56 -0.42,-9.44 -3.27,-9.44C-5.13,-9.44 -6.76,-9.04 -8.14,-8.24C-9.52,-7.45 -10.58,-6.31 -11.32,-4.82C-12.06,-3.34 -12.43,-1.65 -12.43,0.25L-12.41,1.25C-12.28,4.03 -11.4,6.23 -9.76,7.85C-8.12,9.47 -5.94,10.29 -3.23,10.29C-0.42,10.29 1.81,9.42 3.45,7.68C5.1,5.93 5.92,3.58 5.92,0.62L5.92,0.41C5.92,-2.63 5.1,-5.03 3.46,-6.79" style="fill:rgb(193,181,150);fill-rule:nonzero;"/>
        </g>
        <g transform="matrix(1.03644,0,0,1.03644,149.574,53.0455)">
            <path d="M0,-19.37C-2.44,-19.37 -4.3,-18.41 -5.59,-16.5C-6.44,-18.41 -8.06,-19.37 -10.46,-19.37C-12.74,-19.37 -14.55,-18.51 -15.89,-16.78L-16.09,-19.02L-21.64,-19.02L-21.64,0L-15.72,0L-15.72,-13.23C-15.12,-14.28 -14.25,-14.8 -13.12,-14.8C-12.23,-14.8 -11.62,-14.57 -11.31,-14.13C-10.99,-13.68 -10.83,-12.96 -10.83,-11.97L-10.83,0L-4.89,0L-4.89,-12.99L-4.91,-13.23C-4.33,-14.28 -3.46,-14.8 -2.29,-14.8C-1.42,-14.8 -0.82,-14.57 -0.5,-14.13C-0.17,-13.68 0,-12.97 0,-12L0,0L5.94,0L5.94,-12.37C5.83,-17.04 3.85,-19.37 0,-19.37" style="fill:rgb(193,181,150);fill-rule:nonzero;"/>
        </g>
        <g transform="matrix(1.03644,0,0,1.03644,169.484,38.95)">
            <path d="M0,8.19C-0.21,8.59 -0.56,8.95 -1.05,9.26C-1.53,9.58 -2.14,9.74 -2.88,9.74C-3.44,9.74 -3.91,9.57 -4.27,9.24C-4.63,8.9 -4.82,8.47 -4.82,7.93C-4.82,6.07 -3.78,5.15 -1.72,5.15L0,5.15L0,8.19ZM5.94,9.3L5.94,0.88C5.91,-1.19 5.19,-2.81 3.78,-3.99C2.37,-5.18 0.46,-5.77 -1.97,-5.77C-4.39,-5.77 -6.39,-5.19 -7.95,-4.05C-9.52,-2.9 -10.3,-1.41 -10.3,0.43L-4.38,0.43C-4.38,-0.96 -3.67,-1.65 -2.27,-1.65C-0.76,-1.65 0,-0.78 0,0.98L0,1.98L-1.83,1.98C-4.73,1.98 -6.95,2.51 -8.47,3.57C-10,4.62 -10.76,6.18 -10.76,8.24C-10.76,9.88 -10.13,11.25 -8.88,12.33C-7.62,13.41 -6.1,13.96 -4.31,13.96C-2.35,13.96 -0.83,13.27 0.26,11.9C0.43,12.65 0.62,13.22 0.83,13.6L6.75,13.6L6.75,13.31C6.23,12.38 5.97,11.04 5.94,9.3" style="fill:rgb(193,181,150);fill-rule:nonzero;"/>
        </g>
        <g transform="matrix(1.03644,0,0,1.03644,195.105,51.2007)">
            <path d="M0,-15.81C-0.97,-17 -2.45,-17.59 -4.43,-17.59C-6.74,-17.59 -8.55,-16.73 -9.87,-15L-10.06,-17.24L-15.61,-17.24L-15.61,1.78L-9.69,1.78L-9.69,-11.65C-9.13,-12.56 -8.27,-13.02 -7.11,-13.02C-6.09,-13.02 -5.38,-12.79 -5,-12.34C-4.61,-11.89 -4.42,-11.18 -4.42,-10.22L-4.42,1.78L1.52,1.78L1.52,-10.47C1.49,-12.85 0.98,-14.63 0,-15.81" style="fill:rgb(193,181,150);fill-rule:nonzero;"/>
        </g>
        <g transform="matrix(1.03644,0,0,1.03644,231.898,53.0455)">
            <path d="M0,-25.59L-7.63,-25.59L-13.15,-17.56L-15.29,-14.3L-15.29,-25.59L-21.46,-25.59L-21.46,0L-15.29,0L-15.29,-6.75L-12.76,-9.52L-7.31,0L0,0L-8.65,-14.27L0,-25.59Z" style="fill:rgb(193,181,150);fill-rule:nonzero;"/>
        </g>
        <g transform="matrix(1.03644,0,0,1.03644,244.325,53.4186)">
            <path d="M0,-19.38L0,-6.03C-0.57,-5.06 -1.54,-4.57 -2.9,-4.57C-4.48,-4.57 -5.27,-5.39 -5.27,-7.02L-5.27,-19.38L-11.2,-19.38L-11.2,-7.05C-11.2,-4.78 -10.66,-3.04 -9.59,-1.82C-8.52,-0.61 -6.94,0 -4.85,0C-2.72,0 -1.02,-0.81 0.23,-2.41L0.41,-0.36L5.96,-0.36L5.96,-19.38L0,-19.38Z" style="fill:rgb(193,181,150);fill-rule:nonzero;"/>
        </g>
        <g transform="matrix(1.03644,0,0,1.03644,264.587,53.4186)">
            <path d="M0,-27.37L-2.58,-25.02L-5.17,-27.37L-10.27,-27.37L-10.27,-27.22L-4.5,-22.21L-0.69,-22.21L5.04,-27.18L5.04,-27.37L0,-27.37ZM-0.37,-5.25C-0.83,-4.8 -1.47,-4.57 -2.3,-4.57C-3.3,-4.57 -4.03,-4.94 -4.48,-5.68C-4.94,-6.42 -5.17,-7.74 -5.17,-9.65C-5.17,-10.74 -5.13,-11.6 -5.05,-12.22C-4.79,-14.18 -3.89,-15.16 -2.36,-15.16C-1.55,-15.16 -0.9,-14.89 -0.42,-14.37C0.06,-13.84 0.3,-13.08 0.3,-12.1L5.85,-12.1C5.85,-14.44 5.13,-16.3 3.67,-17.67C2.22,-19.04 0.26,-19.73 -2.22,-19.73C-4.04,-19.73 -5.63,-19.33 -6.96,-18.54C-8.3,-17.75 -9.32,-16.62 -10.03,-15.15C-10.74,-13.68 -11.09,-11.98 -11.09,-10.06L-11.09,-9.81C-11.09,-6.74 -10.3,-4.34 -8.7,-2.61C-7.11,-0.87 -4.93,0 -2.16,0C0.19,0 2.12,-0.67 3.61,-2.01C5.11,-3.34 5.85,-5.06 5.85,-7.14L0.3,-7.14C0.31,-6.33 0.09,-5.7 -0.37,-5.25" style="fill:rgb(193,181,150);fill-rule:nonzero;"/>
        </g>
        <g transform="matrix(1.03644,0,0,1.03644,285.078,45.1064)">
            <path d="M0,-3.69L-5.97,-3.69C-5.64,-5.99 -4.61,-7.14 -2.88,-7.14C-1.94,-7.14 -1.22,-6.88 -0.72,-6.35C-0.21,-5.83 0.03,-5.1 0,-4.15L0,-3.69ZM5.81,-2.29C5.81,-5.25 5.03,-7.56 3.49,-9.22C1.94,-10.88 -0.17,-11.71 -2.84,-11.71C-4.74,-11.71 -6.38,-11.3 -7.76,-10.49C-9.15,-9.67 -10.2,-8.52 -10.92,-7.03C-11.64,-5.54 -12,-3.83 -12,-1.88L-12,-1.39C-12,1.4 -11.1,3.66 -9.29,5.41C-7.49,7.15 -5.13,8.02 -2.21,8.02C-0.65,8.02 0.8,7.71 2.16,7.11C3.51,6.51 4.56,5.7 5.3,4.68L2.59,1.48C1.53,2.79 0.07,3.45 -1.81,3.45C-2.94,3.45 -3.87,3.14 -4.58,2.53C-5.3,1.92 -5.76,1.08 -5.97,0.02L5.81,0.02L5.81,-2.29Z" style="fill:rgb(193,181,150);fill-rule:nonzero;"/>
        </g>
        <g transform="matrix(1.03644,0,0,1.03644,303.889,53.0455)">
            <path d="M0,-19.37C-1.79,-19.37 -3.17,-18.44 -4.17,-16.57L-4.36,-19.02L-9.92,-19.02L-9.92,0L-3.99,0L-3.99,-12.04C-3.47,-13.21 -2.27,-13.79 -0.41,-13.79L1.54,-13.65L1.65,-19.16C1.18,-19.3 0.63,-19.37 0,-19.37" style="fill:rgb(193,181,150);fill-rule:nonzero;"/>
        </g>
        <g transform="matrix(1.03644,0,0,1.03644,317.404,38.95)">
            <path d="M0,8.19C-0.21,8.59 -0.56,8.95 -1.05,9.26C-1.53,9.58 -2.15,9.74 -2.88,9.74C-3.45,9.74 -3.91,9.57 -4.27,9.24C-4.64,8.9 -4.82,8.47 -4.82,7.93C-4.82,6.07 -3.79,5.15 -1.72,5.15L0,5.15L0,8.19ZM5.94,9.3L5.94,0.88C5.9,-1.19 5.18,-2.81 3.78,-3.99C2.37,-5.18 0.46,-5.77 -1.97,-5.77C-4.4,-5.77 -6.39,-5.19 -7.96,-4.05C-9.52,-2.9 -10.3,-1.41 -10.3,0.43L-4.38,0.43C-4.38,-0.96 -3.68,-1.65 -2.27,-1.65C-0.76,-1.65 0,-0.78 0,0.98L0,1.98L-1.83,1.98C-4.74,1.98 -6.95,2.51 -8.47,3.57C-10,4.62 -10.76,6.18 -10.76,8.24C-10.76,9.88 -10.13,11.25 -8.88,12.33C-7.62,13.41 -6.1,13.96 -4.31,13.96C-2.35,13.96 -0.83,13.27 0.26,11.9C0.43,12.65 0.61,13.22 0.82,13.6L6.75,13.6L6.75,13.31C6.23,12.38 5.96,11.04 5.94,9.3" style="fill:rgb(193,181,150);fill-rule:nonzero;"/>
        </g>
        <g transform="matrix(1,0,0,1,25.53,63.81)">
            <path d="M0,-49.15C-4.67,-46.39 -4.65,-41.93 0.06,-39.2C2.36,-37.86 5.4,-37.19 8.44,-37.19C11.48,-37.19 14.52,-37.86 16.83,-39.2C19.2,-40.57 20.38,-42.38 20.38,-44.19C20.38,-45.98 19.22,-47.77 16.89,-49.14C16.51,-47.72 15.75,-46.37 14.63,-45.25C12.92,-43.54 10.69,-42.68 8.45,-42.68C6.21,-42.68 3.97,-43.54 2.26,-45.25C1.14,-46.37 0.38,-47.72 0,-49.15M22.21,-7.96L22.21,-2.45L17.85,0.07L17.84,-20.83L22.21,-23.35L22.21,-14.14L23.72,-17.67L27.63,-26.48L33.02,-29.6L26.91,-16.82L33.02,-8.7L27.85,-5.71L24,-11.27L22.21,-7.96ZM-1.25,-0.32L-1.25,-0.1L-5.92,-2.8L-9.12,-12.04L-11.48,-13.4L-11.48,-6.01L-15.84,-8.53L-15.84,-29.43L-8.72,-25.31C-6.57,-24.08 -4.89,-22.56 -3.68,-20.76C-2.47,-18.96 -1.87,-17.06 -1.87,-15.05C-1.87,-13.6 -2.12,-12.54 -2.63,-11.88C-3.14,-11.22 -3.94,-10.9 -5.03,-10.94L-1.25,-0.32ZM8.46,-63.8L14.63,-57.62C15.83,-56.42 16.61,-54.97 16.97,-53.43C18.43,-52.97 19.79,-52.38 21.02,-51.67C24.57,-49.62 26.34,-46.9 26.34,-44.19C26.34,-41.48 24.57,-38.76 21.02,-36.7C17.56,-34.7 13,-33.69 8.44,-33.69C3.88,-33.69 -0.68,-34.7 -4.13,-36.7C-11.23,-40.82 -11.23,-47.56 -4.13,-51.67C-2.9,-52.39 -1.53,-52.97 -0.07,-53.44C0.29,-54.97 1.07,-56.43 2.26,-57.62L8.45,-63.81L8.44,-63.81L-25.53,-44.19L-25.53,-4.95L8.44,14.66L8.45,14.66L8.45,14.65L20.88,7.48L22.52,6.53L42.42,-4.95L42.42,-44.19L8.46,-63.8Z" style="fill:rgb(193,181,150);fill-rule:nonzero;"/>
        </g>
        <g transform="matrix(1,0,0,1,27.79,22.72)">
            <path d="M0,-4.16C1.71,-2.45 3.95,-1.59 6.19,-1.59C8.43,-1.59 10.66,-2.45 12.37,-4.16C13.49,-5.28 14.25,-6.63 14.63,-8.05C16.96,-6.68 18.12,-4.89 18.12,-3.1C18.12,-1.29 16.94,0.52 14.57,1.89C12.26,3.23 9.22,3.9 6.18,3.9C3.14,3.9 0.1,3.23 -2.2,1.89C-6.91,-0.84 -6.93,-5.3 -2.26,-8.06C-1.88,-6.63 -1.12,-5.28 0,-4.16" style="fill:rgb(193,181,150);fill-rule:nonzero;"/>
        </g>
        <g transform="matrix(1,0,0,1,67.95,19.62)">
            <path d="M0,0L-33.97,19.62L-33.98,19.62L-67.95,0L-33.98,-19.62L-33.97,-19.62L-40.16,-13.43C-41.35,-12.24 -42.13,-10.78 -42.49,-9.25C-43.95,-8.78 -45.32,-8.2 -46.55,-7.48C-53.65,-3.37 -53.65,3.37 -46.55,7.49C-43.1,9.49 -38.54,10.5 -33.98,10.5C-29.42,10.5 -24.86,9.49 -21.4,7.49C-17.85,5.43 -16.08,2.71 -16.08,0C-16.08,-2.71 -17.85,-5.43 -21.4,-7.48C-22.63,-8.19 -23.99,-8.78 -25.45,-9.24C-25.81,-10.78 -26.59,-12.23 -27.79,-13.43L-33.96,-19.61L0,0Z" style="fill:rgb(193,181,150);fill-rule:nonzero;"/>
        </g>
        <g transform="matrix(1,0,0,1,45.91,21.66)">
            <path d="M0,-2.04C0,-0.23 -1.18,1.58 -3.55,2.95C-5.86,4.29 -8.9,4.96 -11.94,4.96C-14.98,4.96 -18.02,4.29 -20.32,2.95C-25.03,0.22 -25.05,-4.24 -20.38,-7C-20,-5.57 -19.24,-4.22 -18.12,-3.1C-16.41,-1.39 -14.17,-0.53 -11.93,-0.53C-9.69,-0.53 -7.46,-1.39 -5.75,-3.1C-4.63,-4.22 -3.87,-5.57 -3.49,-6.99C-1.16,-5.62 0,-3.83 0,-2.04" style="fill:rgb(193,181,150);fill-rule:nonzero;"/>
        </g>
        <g transform="matrix(1,0,0,1,18.68,45.27)">
            <path d="M0,-1.05C0.42,-0.3 0.63,0.53 0.63,1.44C0.63,2.34 0.42,2.92 0,3.18C-0.41,3.44 -1.04,3.34 -1.87,2.86L-4.63,1.26L-4.63,-4.49L-1.87,-2.9C-1.05,-2.43 -0.43,-1.81 0,-1.05" style="fill:rgb(193,181,150);fill-rule:nonzero;"/>
        </g>
        <g transform="matrix(1,0,0,1,24.28,34.38)">
            <path d="M0,29.33L-4.67,26.63L-7.87,17.39L-10.23,16.03L-10.23,23.42L-14.59,20.9L-14.59,0L-7.47,4.12C-5.32,5.35 -3.64,6.87 -2.43,8.67C-1.22,10.47 -0.62,12.37 -0.62,14.38C-0.62,15.83 -0.87,16.89 -1.38,17.55C-1.89,18.21 -2.69,18.53 -3.78,18.49L0,29.11L0,29.33ZM9.69,4.86L-24.28,-14.76L-24.28,24.47L9.69,44.09L9.7,31.02L9.7,4.86L9.69,4.86Z" style="fill:rgb(193,181,150);fill-rule:nonzero;"/>
        </g>
        <g transform="matrix(1,0,0,1,58.55,42.98)">
            <path d="M0,12.13L-5.17,15.12L-9.02,9.56L-10.81,12.87L-10.81,18.38L-15.17,20.9L-15.18,0L-10.81,-2.52L-10.81,6.69L-9.3,3.16L-5.39,-5.65L0,-8.77L-6.11,4.01L0,12.13ZM-24.57,-3.74L-24.58,-3.74L-24.57,15.88L-24.57,35.49L-12.14,28.31L-10.5,27.36L9.4,15.87L9.4,-23.36L-24.57,-3.74Z" style="fill:rgb(193,181,150);fill-rule:nonzero;"/>
        </g>
    </g>
</svg>
