<?xml version="1.0" encoding="UTF-8" standalone="no"?>
<!DOCTYPE svg PUBLIC "-//W3C//DTD SVG 1.1//EN" "http://www.w3.org/Graphics/SVG/1.1/DTD/svg11.dtd">
<svg width="100%" height="100%" viewBox="0 0 730 177" version="1.1" xmlns="http://www.w3.org/2000/svg" xmlns:xlink="http://www.w3.org/1999/xlink" xml:space="preserve" xmlns:serif="http://www.serif.com/" style="fill-rule:evenodd;clip-rule:evenodd;stroke-linejoin:round;stroke-miterlimit:2;">
    <g>
        <path id="fullLogo" d="M238.284,70.549C241.397,69.211 244.048,66.984 245.904,64.149C247.624,61.12 248.466,57.67 248.334,54.189C248.334,48.659 246.41,44.379 242.564,41.349C238.714,38.319 233.374,36.806 226.544,36.809L203.884,36.809L203.884,94.389L217.764,94.389L217.764,74.019L225.274,74.019L235.444,94.389L250.314,94.389L250.314,93.799L238.284,70.549ZM232.494,61.259C231.164,62.649 229.174,63.349 226.544,63.349L217.764,63.349L217.764,47.489L226.544,47.489C229.154,47.489 231.134,48.189 232.474,49.609C233.894,51.214 234.62,53.319 234.494,55.459C234.621,57.58 233.901,59.667 232.494,61.259L232.494,61.259Z" style="fill:rgb(182,162,104);fill-rule:nonzero;"/>
        <path id="fullLogo-2" d="M290.184,56.759C286.494,52.789 281.444,50.805 275.034,50.809C271.206,50.714 267.422,51.643 264.074,53.499C260.969,55.285 258.474,57.965 256.914,61.189C255.205,64.745 254.352,68.653 254.424,72.599L254.464,74.849C254.754,81.099 256.744,86.052 260.434,89.709C264.134,93.359 269.027,95.182 275.114,95.179C281.444,95.179 286.46,93.222 290.164,89.309C293.864,85.399 295.714,80.106 295.714,73.429L295.714,72.959C295.713,66.129 293.87,60.728 290.184,56.759ZM282.394,73.949C282.284,81.249 279.857,84.899 275.114,84.899C272.921,85.018 270.823,83.962 269.614,82.129C268.374,80.289 267.754,77.389 267.754,73.429L267.794,71.019C268.164,64.399 270.577,61.089 275.034,61.089C279.934,61.089 282.387,64.925 282.394,72.599L282.394,73.949Z" style="fill:rgb(182,162,104);fill-rule:nonzero;"/>
        <path id="fullLogo-3" d="M350.374,50.809C344.893,50.809 340.703,52.955 337.804,57.249C335.903,52.959 332.25,50.812 326.844,50.809C322.073,50.647 317.51,52.816 314.624,56.619L314.184,51.599L301.693,51.599L301.693,94.389L315.013,94.389L315.013,64.609C316.122,62.406 318.409,61.032 320.874,61.088C322.874,61.088 324.234,61.588 324.943,62.588C325.771,64.071 326.144,65.765 326.013,67.458L326.013,94.388L339.383,94.388L339.383,65.158L339.343,64.608C340.437,62.379 342.752,60.995 345.233,61.088C347.183,61.088 348.533,61.588 349.273,62.588C350.118,64.035 350.501,65.707 350.374,67.378L350.374,94.388L363.744,94.388L363.744,66.548C363.503,56.058 359.047,50.812 350.374,50.809Z" style="fill:rgb(182,162,104);fill-rule:nonzero;"/>
        <path id="fullLogo-4" d="M406.974,84.699L406.974,65.759C407.09,61.562 405.302,57.53 402.114,54.799C398.944,52.139 394.63,50.809 389.174,50.809C383.724,50.809 379.237,52.099 375.714,54.679C372.37,56.927 370.381,60.72 370.434,64.749L383.754,64.749C383.754,61.629 385.344,60.059 388.504,60.059C391.904,60.059 393.604,62.039 393.604,65.979L393.604,68.249L389.494,68.249C382.954,68.249 377.97,69.435 374.544,71.809C371.113,74.179 369.4,77.686 369.404,82.329C369.339,85.877 370.898,89.268 373.634,91.529C376.491,93.973 380.155,95.274 383.914,95.179C388.324,95.179 391.744,93.639 394.204,90.559C394.453,91.885 394.877,93.173 395.464,94.389L408.794,94.389L408.794,93.719C407.633,91.639 407.027,88.632 406.974,84.699ZM393.604,82.209C393.041,83.201 392.231,84.031 391.254,84.619C390.013,85.376 388.576,85.748 387.124,85.689C385.973,85.735 384.849,85.329 383.994,84.559C383.176,83.806 382.729,82.73 382.774,81.619C382.774,77.449 385.094,75.366 389.734,75.369L393.604,75.369L393.604,82.209Z" style="fill:rgb(182,162,104);fill-rule:nonzero;"/>
        <path id="fullLogo-5" d="M449.233,54.799C447.033,52.139 443.703,50.809 439.243,50.809C434.466,50.616 429.89,52.792 427.023,56.619L426.593,51.599L414.093,51.599L414.093,94.389L427.423,94.389L427.423,64.179C428.631,62.149 430.876,60.955 433.233,61.089C435.533,61.089 437.113,61.599 437.983,62.609C438.962,63.997 439.423,65.686 439.283,67.379L439.283,94.389L452.653,94.389L452.653,66.829C452.574,61.469 451.434,57.469 449.233,54.799Z" style="fill:rgb(182,162,104);fill-rule:nonzero;"/>
        <path id="fullLogo-6" d="M529.104,36.809L511.944,36.809L499.524,54.879L494.704,62.199L494.704,36.809L480.814,36.809L480.814,94.389L494.704,94.389L494.704,79.209L500.394,72.959L512.654,94.389L529.104,94.389L509.654,62.279L529.104,36.809Z" style="fill:rgb(182,162,104);fill-rule:nonzero;"/>
        <path id="fullLogo-7" d="M556.084,51.599L556.084,81.619C554.793,83.809 552.617,84.902 549.554,84.899C545.994,84.899 544.214,83.065 544.214,79.399L544.214,51.599L530.883,51.599L530.883,79.319C530.883,84.438 532.09,88.362 534.503,91.089C536.923,93.819 540.477,95.182 545.163,95.179C549.623,95.34 553.892,93.32 556.593,89.769L556.993,94.389L569.493,94.389L569.493,51.599L556.084,51.599Z" style="fill:rgb(182,162,104);fill-rule:nonzero;"/>
        <path id="fullLogo-8" d="M600.064,33.599L594.254,38.899L588.434,33.599L576.963,33.599L576.963,33.959L589.944,45.229L598.524,45.229L611.414,34.039L611.414,33.599L600.064,33.599ZM599.233,83.379C598.047,84.448 596.478,84.997 594.883,84.899C592.916,85.038 591.024,84.079 589.973,82.409C588.954,80.749 588.434,77.769 588.434,73.469C588.404,71.541 588.498,69.614 588.713,67.699C589.294,63.288 591.31,61.085 594.763,61.089C596.404,61.013 597.997,61.665 599.113,62.869C600.277,64.303 600.855,66.126 600.733,67.969L613.233,67.969C613.233,62.699 611.6,58.522 608.334,55.439C605.064,52.349 600.647,50.805 595.084,50.809C591.347,50.711 587.654,51.634 584.404,53.479C581.386,55.266 578.979,57.927 577.504,61.109C575.845,64.693 575.024,68.609 575.104,72.559L575.104,73.109C575.104,80.018 576.897,85.425 580.484,89.329C584.074,93.229 588.981,95.179 595.204,95.179C600.504,95.179 604.834,93.679 608.194,90.679C611.507,87.773 613.356,83.534 613.234,79.129L600.734,79.129C600.856,80.693 600.31,82.238 599.233,83.378L599.233,83.379Z" style="fill:rgb(182,162,104);fill-rule:nonzero;"/>
        <path id="fullLogo-9" d="M657.613,72.009C657.613,65.338 655.873,60.135 652.393,56.399C648.913,52.668 644.167,50.805 638.153,50.809C634.279,50.704 630.449,51.655 627.073,53.559C623.979,55.375 621.504,58.084 619.973,61.329C618.293,64.957 617.462,68.921 617.543,72.919L617.543,74.019C617.543,80.299 619.573,85.395 623.633,89.309C627.693,93.229 633.007,95.185 639.573,95.179C642.957,95.208 646.308,94.515 649.403,93.149C652.202,91.983 654.639,90.091 656.463,87.669L650.373,80.469C647.972,83.434 644.294,85.081 640.483,84.899C638.218,85.001 635.993,84.267 634.233,82.838C632.569,81.374 631.466,79.376 631.113,77.188L657.613,77.188L657.613,72.009ZM644.553,68.839L631.113,68.839C631.853,63.679 634.173,61.096 638.073,61.089C639.867,60.972 641.63,61.611 642.933,62.849C644.137,64.205 644.725,66.003 644.553,67.809L644.553,68.839Z" style="fill:rgb(182,162,104);fill-rule:nonzero;"/>
        <path id="fullLogo-10" d="M685.374,50.809C681.363,50.809 678.24,52.905 676.004,57.099L675.564,51.599L663.064,51.599L663.064,94.389L676.394,94.389L676.394,67.299C677.584,64.659 680.274,63.342 684.464,63.349L688.854,63.659L689.094,51.279C687.882,50.946 686.63,50.787 685.374,50.809Z" style="fill:rgb(182,162,104);fill-rule:nonzero;"/>
        <path id="fullLogo-11" d="M728.093,84.699L728.093,65.759C728.014,61.119 726.39,57.465 723.223,54.799C720.063,52.139 715.753,50.809 710.293,50.809C704.833,50.809 700.343,52.099 696.823,54.679C693.48,56.927 691.491,60.72 691.543,64.749L704.873,64.749C704.873,61.629 706.453,60.059 709.623,60.059C713.023,60.059 714.723,62.039 714.723,65.979L714.723,68.249L710.613,68.249C704.074,68.249 699.09,69.435 695.663,71.809C692.233,74.179 690.516,77.686 690.513,82.329C690.448,85.879 692.011,89.272 694.753,91.529C697.609,93.975 701.274,95.276 705.033,95.179C709.433,95.179 712.86,93.639 715.313,90.559C715.561,91.887 715.988,93.176 716.583,94.389L729.913,94.389L729.913,93.719C728.753,91.639 728.147,88.632 728.093,84.699ZM714.723,82.209C714.157,83.199 713.348,84.028 712.373,84.619C711.128,85.374 709.688,85.747 708.233,85.689C707.086,85.733 705.966,85.328 705.113,84.559C704.292,83.807 703.842,82.731 703.883,81.619C703.883,77.449 706.203,75.366 710.843,75.369L714.723,75.369L714.723,82.209Z" style="fill:rgb(182,162,104);fill-rule:nonzero;"/>
        <path id="fullLogo-12" d="M205.843,141.299L205.843,120.239L203.913,120.239L203.913,142.919L217.033,142.919L217.033,141.299L205.843,141.299Z" style="fill:rgb(182,162,104);fill-rule:nonzero;"/>
        <path id="fullLogo-13" d="M232.204,128.109C230.833,126.546 228.831,125.679 226.754,125.749C223.949,125.701 221.368,127.322 220.194,129.869C219.546,131.233 219.221,132.729 219.244,134.239L219.244,134.619C219.135,136.891 219.885,139.123 221.344,140.869C222.712,142.429 224.71,143.296 226.784,143.229C228.161,143.249 229.516,142.882 230.694,142.169C231.852,141.445 232.773,140.399 233.344,139.159C233.991,137.78 234.316,136.272 234.294,134.749L234.294,134.369C234.403,132.095 233.657,129.861 232.204,128.109ZM232.434,134.599C232.522,136.434 231.97,138.245 230.874,139.719C229.866,140.94 228.362,141.649 226.779,141.649C225.195,141.649 223.691,140.94 222.684,139.719C221.599,138.295 221.043,136.537 221.114,134.749L221.114,134.409C221.03,132.574 221.589,130.766 222.694,129.299C223.655,128.035 225.166,127.306 226.754,127.339C227.807,127.325 228.839,127.632 229.714,128.219C230.603,128.845 231.299,129.707 231.724,130.709C232.21,131.821 232.452,133.025 232.434,134.239L232.434,134.599Z" style="fill:rgb(182,162,104);fill-rule:nonzero;"/>
        <path id="fullLogo-14" d="M243.414,133.168L250.564,126.068L248.214,126.068L241.764,132.398L240.004,134.298L240.004,118.998L238.134,118.998L238.134,142.918L240.004,142.918L240.004,136.478L242.134,134.428L248.954,142.918L251.184,142.918L243.414,133.168Z" style="fill:rgb(182,162,104);fill-rule:nonzero;"/>
        <path id="fullLogo-15" d="M265.874,139.069L265.874,131.099C265.926,129.605 265.31,128.163 264.194,127.169C262.941,126.162 261.358,125.656 259.753,125.749C258.095,125.695 256.469,126.218 255.153,127.229C254.01,128.022 253.313,129.317 253.283,130.709L255.153,130.719C255.168,129.763 255.646,128.871 256.433,128.329C257.36,127.637 258.498,127.284 259.654,127.329C260.828,127.242 261.993,127.611 262.904,128.359C263.666,129.104 264.071,130.144 264.014,131.209L264.014,133.119L260.634,133.119C258.633,133.005 256.644,133.504 254.934,134.549C253.621,135.404 252.844,136.883 252.884,138.449C252.851,139.754 253.401,141.008 254.384,141.869C255.473,142.804 256.879,143.291 258.314,143.229C259.425,143.236 260.525,142.997 261.534,142.529C262.516,142.087 263.375,141.411 264.034,140.559C264.044,141.358 264.165,142.153 264.394,142.919L266.384,142.919L266.384,142.729C265.987,141.551 265.814,140.31 265.874,139.069ZM264.013,138.259C263.571,139.267 262.822,140.11 261.873,140.669C260.87,141.284 259.711,141.6 258.533,141.579C257.537,141.624 256.56,141.288 255.803,140.639C255.12,140.052 254.734,139.189 254.753,138.289C254.736,137.164 255.341,136.117 256.323,135.569C257.656,134.837 259.164,134.485 260.683,134.549L264.013,134.549L264.013,138.259Z" style="fill:rgb(182,162,104);fill-rule:nonzero;"/>
        <rect id="fullLogo-16" x="271.053" y="118.998" width="1.87" height="23.92" style="fill:rgb(182,162,104);fill-rule:nonzero;"/>
        <path id="fullLogo-17" d="M278.204,126.069L278.204,142.919L280.074,142.919L280.074,126.069L278.204,126.069ZM280.094,120.309C279.561,119.831 278.746,119.831 278.214,120.309C277.99,120.551 277.868,120.87 277.874,121.199C277.914,121.891 278.495,122.439 279.188,122.439C279.525,122.439 279.849,122.31 280.094,122.079C280.329,121.848 280.457,121.528 280.444,121.199C280.455,120.867 280.328,120.544 280.093,120.309L280.094,120.309Z" style="fill:rgb(182,162,104);fill-rule:nonzero;"/>
        <path id="fullLogo-18" d="M286.363,141.338L296.623,127.468L296.623,126.068L284.373,126.068L284.373,127.688L294.273,127.688L284.063,141.538L284.063,142.918L297.313,142.918L297.313,141.338L286.363,141.338Z" style="fill:rgb(182,162,104);fill-rule:nonzero;"/>
        <path id="fullLogo-19" d="M312.753,139.069L312.753,131.099C312.805,129.607 312.193,128.167 311.083,127.169C309.827,126.162 308.241,125.656 306.633,125.749C304.979,125.697 303.356,126.22 302.043,127.229C300.896,128.018 300.199,129.316 300.173,130.709L302.043,130.719C302.058,129.763 302.535,128.871 303.323,128.329C304.25,127.635 305.387,127.282 306.543,127.329C307.718,127.246 308.881,127.614 309.793,128.359C310.556,129.104 310.961,130.144 310.903,131.209L310.903,133.119L307.523,133.119C305.522,133.004 303.533,133.503 301.823,134.549C300.511,135.404 299.734,136.883 299.773,138.449C299.741,139.754 300.291,141.008 301.273,141.869C302.363,142.804 303.769,143.291 305.203,143.229C306.315,143.235 307.415,142.996 308.423,142.529C309.406,142.088 310.265,141.411 310.923,140.559C310.937,141.357 311.054,142.151 311.273,142.919L313.273,142.919L313.273,142.729C312.867,141.553 312.691,140.311 312.753,139.069ZM310.903,138.259C310.461,139.267 309.712,140.11 308.763,140.669C307.759,141.283 306.6,141.599 305.423,141.579C304.427,141.624 303.451,141.288 302.693,140.639C302.01,140.052 301.625,139.189 301.643,138.289C301.627,137.164 302.231,136.117 303.213,135.569C304.546,134.837 306.054,134.485 307.573,134.549L310.903,134.549L310.903,138.259Z" style="fill:rgb(182,162,104);fill-rule:nonzero;"/>
        <path id="fullLogo-20" d="M327.213,140.559C326.293,141.302 325.135,141.689 323.953,141.649C322.43,141.725 320.961,141.052 320.023,139.849C319.012,138.374 318.519,136.604 318.623,134.819L318.623,134.269C318.516,132.458 319.008,130.662 320.023,129.159C320.986,128.006 322.413,127.338 323.915,127.338C325.124,127.338 326.295,127.771 327.213,128.559C328.091,129.392 328.606,130.539 328.643,131.749L330.433,131.749C330.409,130.097 329.712,128.525 328.503,127.399C327.25,126.281 325.612,125.689 323.933,125.749C322.591,125.718 321.269,126.083 320.133,126.799C319.024,127.515 318.154,128.545 317.633,129.759C317.022,131.143 316.721,132.645 316.753,134.159L316.753,134.719C316.635,136.951 317.324,139.152 318.693,140.919C319.994,142.46 321.939,143.313 323.953,143.229C325.045,143.235 326.123,142.989 327.103,142.509C328.049,142.061 328.862,141.375 329.463,140.519C330.05,139.695 330.387,138.719 330.433,137.709L328.643,137.709C328.594,138.818 328.074,139.856 327.213,140.559Z" style="fill:rgb(182,162,104);fill-rule:nonzero;"/>
        <path id="fullLogo-21" d="M347.003,134.619L347.003,133.569C347.119,131.507 346.479,129.472 345.203,127.849C343.988,126.441 342.191,125.666 340.333,125.749C339.035,125.749 337.767,126.139 336.693,126.869C335.554,127.629 334.644,128.688 334.063,129.929C333.424,131.296 333.103,132.79 333.123,134.299L333.123,134.969C333.099,136.443 333.432,137.901 334.093,139.219C334.697,140.437 335.633,141.46 336.793,142.169C337.963,142.875 339.307,143.242 340.673,143.229C343.045,143.349 345.314,142.216 346.643,140.249L345.473,139.359C344.927,140.097 344.215,140.697 343.393,141.109C342.565,141.483 341.663,141.667 340.753,141.649C339.16,141.681 337.636,140.98 336.623,139.749C335.503,138.414 334.915,136.71 334.973,134.969L334.973,134.619L347.003,134.619ZM336.793,128.889C337.693,127.884 338.985,127.318 340.333,127.339C341.65,127.298 342.914,127.862 343.763,128.869C344.669,129.988 345.157,131.389 345.143,132.829L345.143,133.029L335.043,133.029C335.158,131.495 335.773,130.04 336.793,128.889Z" style="fill:rgb(182,162,104);fill-rule:nonzero;"/>
        <path id="fullLogo-22" d="M369.753,127.279C368.703,126.192 367.22,125.631 365.713,125.749C364.616,125.741 363.536,126.024 362.583,126.569C361.608,127.15 360.797,127.969 360.223,128.949L360.153,126.069L358.383,126.069L358.383,142.919L360.233,142.919L360.233,131.379C360.6,130.239 361.284,129.226 362.203,128.459C363.063,127.746 364.147,127.36 365.263,127.369C366.382,127.266 367.489,127.674 368.273,128.479C368.976,129.452 369.316,130.641 369.233,131.839L369.233,142.919L371.083,142.919L371.083,131.859C371.204,130.222 370.732,128.596 369.753,127.279Z" style="fill:rgb(182,162,104);fill-rule:nonzero;"/>
        <path id="fullLogo-23" d="M388.744,134.619L388.744,133.569C388.858,131.509 388.222,129.476 386.954,127.849C385.738,126.441 383.942,125.666 382.084,125.749C380.786,125.749 379.517,126.139 378.444,126.869C377.302,127.626 376.391,128.686 375.814,129.929C375.17,131.294 374.849,132.789 374.874,134.299L374.874,134.969C374.851,136.441 375.18,137.899 375.834,139.219C377.076,141.706 379.644,143.269 382.424,143.229C384.795,143.349 387.064,142.216 388.394,140.249L387.224,139.359C386.675,140.095 385.963,140.694 385.144,141.109C384.315,141.483 383.413,141.667 382.504,141.649C380.91,141.681 379.386,140.98 378.374,139.749C377.253,138.414 376.665,136.71 376.724,134.969L376.724,134.619L388.744,134.619ZM378.544,128.889C379.443,127.884 380.736,127.318 382.084,127.339C383.397,127.296 384.66,127.861 385.504,128.869C386.417,129.985 386.909,131.387 386.894,132.829L386.894,133.029L376.794,133.029C376.908,131.495 377.523,130.04 378.543,128.889L378.544,128.889Z" style="fill:rgb(182,162,104);fill-rule:nonzero;"/>
        <path id="fullLogo-24" d="M398.974,141.449C398.475,141.538 397.97,141.592 397.464,141.609C396.822,141.669 396.19,141.411 395.774,140.919C395.397,140.29 395.222,139.56 395.274,138.829L395.274,127.589L398.764,127.589L398.764,126.069L395.274,126.069L395.274,121.749L393.404,121.749L393.404,126.069L390.304,126.069L390.304,127.589L393.404,127.589L393.404,138.829C393.322,139.988 393.628,141.142 394.274,142.109C394.97,142.907 396.009,143.324 397.064,143.229C397.738,143.254 398.411,143.162 399.054,142.959L398.974,141.449Z" style="fill:rgb(182,162,104);fill-rule:nonzero;"/>
        <path id="fullLogo-25" d="M411.673,119.219L408.993,122.239L406.313,119.219L404.643,119.219L404.643,119.389L408.323,123.459L409.663,123.459L413.333,119.399L413.333,119.219L411.673,119.219ZM415.463,134.619L415.463,133.569C415.577,131.509 414.941,129.476 413.673,127.849C412.458,126.441 410.661,125.666 408.803,125.749C407.505,125.749 406.237,126.139 405.163,126.869C404.021,127.626 403.111,128.686 402.533,129.929C401.894,131.296 401.573,132.79 401.593,134.299L401.593,134.969C401.569,136.443 401.902,137.901 402.563,139.219C403.167,140.437 404.103,141.46 405.263,142.169C406.433,142.875 407.777,143.242 409.143,143.229C411.515,143.349 413.784,142.216 415.113,140.249L413.943,139.359C413.397,140.098 412.685,140.697 411.863,141.109C411.035,141.483 410.133,141.668 409.223,141.649C407.629,141.681 406.106,140.98 405.093,139.749C403.973,138.414 403.385,136.71 403.443,134.969L403.443,134.619L415.463,134.619ZM405.263,128.889C406.162,127.884 407.455,127.318 408.803,127.339C410.119,127.298 411.384,127.862 412.233,128.869C413.139,129.988 413.628,131.389 413.613,132.829L413.613,133.029L403.513,133.029C403.627,131.494 404.243,130.039 405.264,128.889L405.263,128.889Z" style="fill:rgb(182,162,104);fill-rule:nonzero;"/>
        <path id="fullLogo-26" d="M430.463,136.309C430.003,135.641 429.38,135.1 428.653,134.739C427.483,134.177 426.247,133.763 424.973,133.509C423.778,133.298 422.632,132.867 421.593,132.239C420.983,131.781 420.638,131.05 420.673,130.289C420.663,129.438 421.081,128.637 421.783,128.159C422.653,127.576 423.688,127.289 424.733,127.339C425.857,127.294 426.961,127.645 427.853,128.329C428.639,128.896 429.102,129.81 429.093,130.779L430.963,130.779C431,129.367 430.365,128.019 429.253,127.149C427.959,126.164 426.358,125.668 424.733,125.749C423.203,125.688 421.697,126.15 420.463,127.059C419.407,127.818 418.787,129.048 418.803,130.349C418.78,131.109 418.99,131.86 419.403,132.499C419.874,133.148 420.505,133.664 421.233,133.999C422.349,134.499 423.521,134.865 424.723,135.089C425.92,135.288 427.062,135.738 428.073,136.409C428.788,136.918 429.204,137.751 429.183,138.629C429.182,139.509 428.728,140.33 427.983,140.799C427.052,141.405 425.953,141.703 424.843,141.649C423.656,141.707 422.479,141.389 421.483,140.739C420.652,140.156 420.144,139.213 420.113,138.199L418.243,138.199C418.231,139.624 418.915,140.969 420.073,141.799C421.455,142.801 423.138,143.306 424.843,143.229C426.439,143.301 428.016,142.852 429.333,141.949C430.442,141.174 431.089,139.891 431.053,138.539C431.074,137.754 430.87,136.98 430.463,136.309Z" style="fill:rgb(182,162,104);fill-rule:nonzero;"/>
        <path id="fullLogo-27" d="M446.613,127.279C445.564,126.191 444.08,125.629 442.573,125.749C441.479,125.74 440.402,126.023 439.453,126.569C438.473,127.147 437.657,127.966 437.083,128.949L437.023,126.069L435.243,126.069L435.243,142.919L437.093,142.919L437.093,131.379C437.464,130.241 438.147,129.229 439.063,128.459C439.923,127.747 441.007,127.36 442.123,127.369C443.245,127.268 444.354,127.676 445.143,128.479C445.838,129.455 446.174,130.643 446.093,131.839L446.093,142.919L447.953,142.919L447.953,131.859C448.066,130.222 447.591,128.597 446.613,127.279Z" style="fill:rgb(182,162,104);fill-rule:nonzero;"/>
        <path id="fullLogo-28" d="M464.693,128.109C463.323,126.546 461.32,125.679 459.243,125.749C456.439,125.701 453.858,127.321 452.683,129.869C452.035,131.233 451.71,132.729 451.733,134.239L451.733,134.619C451.625,136.891 452.375,139.123 453.833,140.869C455.201,142.429 457.199,143.296 459.273,143.229C460.65,143.249 462.005,142.882 463.183,142.169C464.338,141.442 465.259,140.396 465.833,139.159C466.48,137.78 466.805,136.272 466.783,134.749L466.783,134.369C466.892,132.095 466.147,129.861 464.693,128.109ZM464.923,134.599C465.012,136.434 464.46,138.245 463.363,139.719C462.353,140.941 460.848,141.649 459.263,141.649C457.678,141.649 456.173,140.941 455.163,139.719C454.082,138.294 453.53,136.536 453.603,134.749L453.603,134.409C453.521,132.576 454.076,130.769 455.173,129.299C456.141,128.037 457.653,127.308 459.243,127.339C460.296,127.326 461.328,127.633 462.203,128.219C463.092,128.843 463.786,129.706 464.203,130.709C464.693,131.821 464.938,133.024 464.923,134.239L464.923,134.599Z" style="fill:rgb(182,162,104);fill-rule:nonzero;"/>
        <path id="fullLogo-29" d="M481.994,136.309C481.529,135.641 480.903,135.1 480.174,134.739C479.007,134.175 477.774,133.761 476.504,133.509C475.308,133.298 474.162,132.867 473.124,132.239C472.507,131.786 472.158,131.053 472.194,130.289C472.183,129.436 472.605,128.633 473.314,128.159C474.184,127.577 475.218,127.289 476.264,127.339C477.387,127.296 478.491,127.646 479.384,128.329C480.169,128.896 480.632,129.81 480.624,130.779L482.494,130.779C482.53,129.367 481.895,128.019 480.784,127.149C479.489,126.165 477.888,125.669 476.264,125.749C474.733,125.685 473.225,126.147 471.994,127.059C470.937,127.818 470.317,129.048 470.334,130.349C470.311,131.109 470.52,131.86 470.934,132.499C471.404,133.148 472.035,133.664 472.764,133.999C473.876,134.498 475.045,134.864 476.244,135.089C477.444,135.287 478.589,135.737 479.604,136.409C480.318,136.918 480.734,137.751 480.714,138.629C480.712,139.509 480.259,140.33 479.514,140.799C478.582,141.404 477.483,141.701 476.374,141.649C475.186,141.707 474.009,141.389 473.014,140.739C472.183,140.154 471.672,139.213 471.634,138.199L469.774,138.199C469.757,139.622 470.438,140.968 471.594,141.799C472.98,142.8 474.665,143.304 476.374,143.229C477.969,143.301 479.546,142.852 480.864,141.949C481.972,141.174 482.62,139.891 482.584,138.539C482.604,137.754 482.4,136.98 481.994,136.309Z" style="fill:rgb(182,162,104);fill-rule:nonzero;"/>
        <path id="fullLogo-30" d="M493.373,141.449C492.875,141.538 492.37,141.591 491.864,141.609C491.221,141.671 490.588,141.413 490.174,140.919C489.792,140.292 489.617,139.56 489.674,138.829L489.674,127.589L493.154,127.589L493.154,126.069L489.674,126.069L489.674,121.749L487.804,121.749L487.804,126.069L484.703,126.069L484.703,127.589L487.804,127.589L487.804,138.829C487.722,139.988 488.028,141.142 488.674,142.109C489.369,142.907 490.409,143.324 491.463,143.229C492.137,143.253 492.81,143.161 493.454,142.959L493.373,141.449Z" style="fill:rgb(182,162,104);fill-rule:nonzero;"/>
        <path id="fullLogo-31" d="M497.204,126.069L497.204,142.919L499.074,142.919L499.074,126.069L497.204,126.069ZM500.044,119.179L497.064,123.539L498.704,123.539L502.304,119.179L500.044,119.179Z" style="fill:rgb(182,162,104);fill-rule:nonzero;"/>
        <path id="fullLogo-32" d="M523.704,128.039C522.601,126.539 520.824,125.68 518.964,125.748C516.852,125.648 514.839,126.678 513.684,128.449L513.594,126.069L511.864,126.069L511.864,149.389L513.714,149.389L513.714,140.799C514.965,142.432 516.949,143.343 519.004,143.229C520.851,143.283 522.608,142.411 523.684,140.909C524.932,139.072 525.543,136.876 525.424,134.659L525.424,134.399C525.556,132.148 524.952,129.915 523.704,128.039ZM522.244,139.779C521.428,140.994 520.037,141.703 518.574,141.649C517.539,141.675 516.517,141.412 515.624,140.889C514.779,140.361 514.113,139.591 513.714,138.679L513.714,130.599C514.445,128.59 516.407,127.277 518.544,127.369C520.012,127.316 521.408,128.023 522.234,129.238C523.188,130.758 523.649,132.537 523.554,134.329C523.674,136.235 523.217,138.135 522.244,139.779L522.244,139.779Z" style="fill:rgb(182,162,104);fill-rule:nonzero;"/>
        <rect id="fullLogo-33" x="529.764" y="118.998" width="1.87" height="23.92" style="fill:rgb(182,162,104);fill-rule:nonzero;"/>
        <path id="fullLogo-34" d="M548.624,128.109C547.253,126.546 545.251,125.679 543.174,125.749C540.369,125.701 537.788,127.322 536.614,129.869C535.969,131.234 535.647,132.729 535.674,134.239L535.674,134.619C535.561,136.89 536.308,139.122 537.764,140.869C539.133,142.427 541.13,143.294 543.204,143.229C544.58,143.251 545.936,142.883 547.113,142.169C548.271,141.443 549.195,140.397 549.774,139.159C550.412,137.778 550.734,136.271 550.714,134.749L550.714,134.369C550.823,132.095 550.077,129.861 548.624,128.109ZM548.854,134.599C548.942,136.434 548.39,138.245 547.294,139.719C546.286,140.94 544.782,141.649 543.199,141.649C541.615,141.649 540.111,140.94 539.104,139.719C538.019,138.295 537.463,136.537 537.534,134.749L537.534,134.409C537.45,132.574 538.009,130.766 539.114,129.299C540.077,128.037 541.587,127.308 543.174,127.339C544.227,127.325 545.259,127.632 546.134,128.219C547.023,128.845 547.719,129.707 548.144,130.709C548.629,131.821 548.872,133.025 548.854,134.239L548.854,134.599Z" style="fill:rgb(182,162,104);fill-rule:nonzero;"/>
        <path id="fullLogo-35" d="M564.053,140.559C563.13,141.302 561.969,141.689 560.784,141.649C559.26,141.725 557.791,141.052 556.854,139.849C555.846,138.373 555.357,136.603 555.464,134.819L555.464,134.269C555.353,132.459 555.842,130.663 556.854,129.159C557.818,128.005 559.247,127.338 560.75,127.338C561.961,127.338 563.134,127.771 564.054,128.559C564.929,129.393 565.44,130.54 565.474,131.749L567.264,131.749C567.247,130.097 566.553,128.523 565.344,127.399C564.089,126.282 562.452,125.691 560.774,125.749C559.429,125.719 558.104,126.084 556.964,126.799C555.857,127.517 554.987,128.547 554.464,129.759C553.86,131.145 553.563,132.646 553.594,134.159L553.594,134.719C553.475,136.951 554.164,139.152 555.534,140.919C556.829,142.461 558.771,143.316 560.784,143.229C561.879,143.236 562.96,142.99 563.944,142.509C564.888,142.058 565.7,141.373 566.304,140.519C566.888,139.694 567.222,138.718 567.264,137.709L565.474,137.709C565.428,138.817 564.911,139.855 564.053,140.559Z" style="fill:rgb(182,162,104);fill-rule:nonzero;"/>
        <path id="fullLogo-36" d="M582.354,127.279C581.304,126.191 579.82,125.629 578.314,125.749C577.218,125.741 576.14,126.028 575.194,126.579C574.22,127.145 573.408,127.951 572.834,128.919L572.834,118.999L570.984,118.999L570.984,142.919L572.834,142.919L572.834,131.379C573.204,130.241 573.887,129.229 574.804,128.459C575.663,127.747 576.747,127.36 577.864,127.369C578.985,127.268 580.094,127.676 580.883,128.479C581.583,129.453 581.919,130.643 581.834,131.839L581.834,142.919L583.694,142.919L583.694,131.859C583.806,130.222 583.331,128.597 582.353,127.279Z" style="fill:rgb(182,162,104);fill-rule:nonzero;"/>
        <path id="fullLogo-37" d="M595.914,118.999L592.944,123.349L594.574,123.359L598.174,118.999L595.914,118.999ZM598.754,126.069L593.834,140.238L588.594,126.068L586.554,126.068L592.914,142.769L592.084,145.049C591.827,145.943 591.328,146.749 590.644,147.379C590.004,147.852 589.219,148.089 588.424,148.049L587.464,147.958L587.474,149.498C587.941,149.641 588.426,149.715 588.914,149.718C590.844,149.718 592.264,148.698 593.194,146.648L593.564,145.778L600.764,126.068L598.754,126.069Z" style="fill:rgb(182,162,104);fill-rule:nonzero;"/>
        <path id="fullLogo-38" d="M613.133,140.559C612.212,141.3 611.055,141.687 609.873,141.649C608.346,141.727 606.873,141.054 605.933,139.849C604.93,138.371 604.441,136.602 604.543,134.819L604.543,134.269C604.438,132.46 604.926,130.665 605.933,129.159C606.898,128.005 608.326,127.338 609.83,127.338C611.041,127.338 612.213,127.771 613.133,128.559C614.009,129.393 614.519,130.54 614.553,131.749L616.343,131.749C616.327,130.097 615.633,128.523 614.423,127.399C613.169,126.282 611.531,125.691 609.853,125.749C608.508,125.719 607.183,126.084 606.043,126.799C604.939,127.52 604.07,128.549 603.543,129.759C602.94,131.145 602.643,132.646 602.673,134.159L602.673,134.719C602.555,136.951 603.244,139.152 604.613,140.919C605.913,142.461 607.858,143.316 609.873,143.229C610.965,143.235 612.043,142.989 613.023,142.509C613.969,142.061 614.782,141.375 615.383,140.519C615.968,139.694 616.301,138.718 616.343,137.709L614.553,137.709C614.513,138.818 613.995,139.858 613.133,140.559Z" style="fill:rgb(182,162,104);fill-rule:nonzero;"/>
        <path id="fullLogo-39" d="M631.434,127.279C630.388,126.191 628.907,125.629 627.404,125.749C626.305,125.741 625.224,126.028 624.274,126.579C623.301,127.143 622.492,127.949 621.924,128.919L621.924,118.999L620.074,118.999L620.074,142.919L621.924,142.919L621.924,131.379C622.287,130.237 622.971,129.223 623.894,128.459C624.752,127.745 625.837,127.359 626.954,127.369C628.072,127.268 629.178,127.676 629.964,128.479C630.666,129.452 631.006,130.641 630.924,131.839L630.924,142.919L632.774,142.919L632.774,131.859C632.886,130.222 632.411,128.597 631.434,127.279Z" style="fill:rgb(182,162,104);fill-rule:nonzero;"/>
        <path id="fullLogo-40" d="M656.693,136.309C656.228,135.64 655.602,135.1 654.873,134.739C653.707,134.175 652.474,133.762 651.203,133.509C650.008,133.298 648.862,132.867 647.823,132.239C647.207,131.786 646.857,131.053 646.893,130.289C646.887,129.437 647.308,128.636 648.013,128.159C648.883,127.576 649.918,127.289 650.963,127.339C652.087,127.296 653.19,127.646 654.083,128.329C654.869,128.896 655.331,129.81 655.323,130.779L657.193,130.779C657.23,129.367 656.595,128.019 655.483,127.149C654.188,126.165 652.587,125.669 650.963,125.749C649.433,125.686 647.926,126.149 646.693,127.059C645.637,127.818 645.016,129.048 645.033,130.349C645.01,131.109 645.22,131.86 645.633,132.499C646.104,133.147 646.735,133.664 647.463,133.999C648.576,134.498 649.744,134.864 650.943,135.089C652.144,135.287 653.289,135.736 654.303,136.409C655.018,136.918 655.434,137.751 655.413,138.629C655.412,139.509 654.958,140.33 654.213,140.799C653.282,141.405 652.183,141.703 651.073,141.649C649.886,141.707 648.709,141.389 647.713,140.739C646.883,140.154 646.372,139.213 646.333,138.199L644.473,138.199C644.457,139.622 645.137,140.968 646.293,141.799C647.68,142.8 649.365,143.304 651.073,143.229C652.669,143.301 654.246,142.852 655.563,141.949C656.672,141.174 657.319,139.891 657.283,138.539C657.304,137.754 657.1,136.98 656.693,136.309Z" style="fill:rgb(182,162,104);fill-rule:nonzero;"/>
        <path id="fullLogo-41" d="M668.074,141.449C667.575,141.538 667.07,141.591 666.564,141.609C665.922,141.671 665.289,141.413 664.874,140.919C664.492,140.292 664.317,139.56 664.374,138.829L664.374,127.589L667.854,127.589L667.854,126.069L664.374,126.069L664.374,121.749L662.504,121.749L662.504,126.069L659.404,126.069L659.404,127.589L662.504,127.589L662.504,138.829C662.422,139.988 662.728,141.142 663.374,142.109C664.07,142.907 665.109,143.325 666.164,143.229C666.838,143.253 667.511,143.161 668.154,142.959L668.074,141.449Z" style="fill:rgb(182,162,104);fill-rule:nonzero;"/>
        <path id="fullLogo-42" d="M678.324,125.749C676.276,125.669 674.381,126.866 673.574,128.749L673.544,126.069L671.724,126.069L671.724,142.919L673.574,142.919L673.574,131.338C673.835,130.241 674.437,129.253 675.294,128.518C676.133,127.86 677.177,127.516 678.244,127.549C678.666,127.543 679.088,127.58 679.504,127.658L679.554,125.958C679.163,125.802 678.744,125.73 678.324,125.748ZM678.354,119.219L675.674,122.239L673.004,119.219L671.334,119.219L671.334,119.389L675.004,123.459L676.344,123.459L680.024,119.399L680.024,119.219L678.354,119.219Z" style="fill:rgb(182,162,104);fill-rule:nonzero;"/>
        <path id="fullLogo-43" d="M695.293,134.619L695.293,133.569C695.409,131.507 694.769,129.472 693.493,127.849C692.281,126.443 690.488,125.669 688.633,125.749C687.332,125.749 686.061,126.139 684.983,126.869C683.847,127.63 682.941,128.688 682.363,129.929C681.72,131.294 681.398,132.789 681.423,134.299L681.423,134.969C681.401,136.441 681.73,137.898 682.383,139.219C683.62,141.711 686.192,143.275 688.973,143.229C691.342,143.348 693.608,142.216 694.933,140.249L693.773,139.359C693.225,140.095 692.513,140.694 691.693,141.109C690.864,141.481 689.962,141.665 689.053,141.649C687.457,141.679 685.931,140.979 684.913,139.749C683.8,138.41 683.217,136.708 683.273,134.969L683.273,134.619L695.293,134.619ZM685.083,128.889C685.985,127.882 687.282,127.316 688.633,127.339C689.947,127.296 691.21,127.861 692.053,128.869C692.963,129.987 693.454,131.388 693.443,132.829L693.443,133.029L683.333,133.029C683.452,131.496 684.067,130.042 685.083,128.889L685.083,128.889Z" style="fill:rgb(182,162,104);fill-rule:nonzero;"/>
        <path id="fullLogo-44" d="M708.414,140.559C707.494,141.302 706.336,141.689 705.154,141.649C703.63,141.725 702.161,141.052 701.224,139.849C700.212,138.374 699.719,136.604 699.824,134.819L699.824,134.269C699.716,132.458 700.208,130.662 701.224,129.159C702.186,128.006 703.613,127.338 705.115,127.338C706.324,127.338 707.495,127.771 708.414,128.559C709.293,129.39 709.804,130.539 709.834,131.749L711.634,131.749C711.609,130.097 710.912,128.525 709.704,127.399C708.45,126.281 706.812,125.69 705.134,125.749C703.788,125.719 702.464,126.084 701.324,126.799C700.22,127.518 699.353,128.548 698.834,129.759C698.222,131.143 697.922,132.645 697.954,134.159L697.954,134.719C697.835,136.951 698.524,139.152 699.894,140.919C701.194,142.46 703.139,143.314 705.154,143.229C706.245,143.235 707.323,142.989 708.304,142.509C709.249,142.061 710.063,141.375 710.664,140.519C711.247,139.693 711.583,138.718 711.634,137.709L709.834,137.709C709.793,138.818 709.275,139.858 708.414,140.559Z" style="fill:rgb(182,162,104);fill-rule:nonzero;"/>
        <path id="fullLogo-45" d="M726.724,127.279C725.673,126.192 724.19,125.631 722.684,125.749C721.588,125.741 720.511,126.028 719.564,126.579C718.588,127.142 717.775,127.948 717.204,128.919L717.204,118.999L715.354,118.999L715.354,142.919L717.204,142.919L717.204,131.379C717.574,130.24 718.257,129.229 719.174,128.459C720.033,127.747 721.117,127.36 722.234,127.369C723.355,127.268 724.464,127.676 725.254,128.479C725.948,129.456 726.284,130.643 726.204,131.839L726.204,142.919L728.064,142.919L728.064,131.859C728.176,130.222 727.701,128.597 726.724,127.279Z" style="fill:rgb(182,162,104);fill-rule:nonzero;"/>
        <g id="logoMark">
            <path id="logoMark_CompoundPathItem_" d="M0,44.14L0,132.42L0.01,44.15L0.01,44.14L0,44.14Z" style="fill:rgb(182,162,104);fill-rule:nonzero;"/>
            <path id="logoMark_PathItem_" d="M62.543,41.759C66.232,45.452 71.243,47.529 76.463,47.529C85.321,47.529 93.138,41.548 95.453,32.999C100.683,36.069 103.313,40.109 103.313,44.139C103.313,48.219 100.643,52.279 95.323,55.369C90.133,58.379 83.293,59.879 76.453,59.879C69.613,59.879 62.773,58.379 57.583,55.369C46.983,49.219 46.943,39.169 57.463,32.999C58.36,36.313 60.112,39.334 62.543,41.759Z" style="fill:rgb(182,162,104);fill-rule:nonzero;"/>
            <path id="logoMark_CompoundPathItem_2" d="M76.47,0.01L90.38,13.92C92.978,16.508 94.794,19.777 95.62,23.35C98.799,24.328 101.861,25.652 104.75,27.3C112.74,31.94 116.73,38.04 116.73,44.14C116.73,50.25 112.74,56.35 104.75,60.98C96.97,65.5 86.71,67.75 76.45,67.75C66.2,67.75 55.94,65.5 48.15,60.98C32.18,51.72 32.18,36.57 48.15,27.3C51.044,25.654 54.109,24.33 57.29,23.35C58.124,19.778 59.943,16.511 62.54,13.92L76.46,0L76.45,0L0.01,44.14L0.01,44.15L0,132.42L76.45,176.56L76.46,176.56L76.46,176.55L152.9,132.42L152.9,44.14L76.47,0.01ZM54.65,143.34L44.13,137.27L36.94,116.49L31.63,113.42L31.63,130.05L21.81,124.38L21.81,77.36L37.84,86.61C42.351,89.114 46.228,92.621 49.17,96.86C51.8,100.627 53.224,105.106 53.25,109.7C53.25,112.97 52.677,115.35 51.53,116.84C50.38,118.33 48.587,119.036 46.15,118.96L54.65,142.86L54.65,143.34ZM120.12,130.72L111.45,118.22L107.42,125.65L107.42,138.05L97.6,143.72L97.6,96.7L107.42,91.03L107.42,111.76L110.83,103.82L119.62,83.99L131.75,76.98L117.99,105.72L131.76,124L120.12,130.72Z" style="fill:rgb(182,162,104);fill-rule:nonzero;"/>
            <path id="logoMark_PathItem_2" d="M103.314,44.139C103.314,48.219 100.644,52.279 95.324,55.369C90.134,58.379 83.294,59.879 76.454,59.879C69.614,59.879 62.774,58.379 57.584,55.369C46.984,49.219 46.944,39.169 57.464,32.999C59.781,41.549 67.599,47.532 76.459,47.532C85.318,47.532 93.136,41.549 95.454,32.999C100.684,36.069 103.314,40.109 103.314,44.139Z" style="fill:rgb(182,162,104);fill-rule:nonzero;"/>
            <path id="logoMark_PathItem_3" d="M42.034,99.489C42.991,101.195 43.484,103.123 43.464,105.079C43.464,107.109 42.994,108.419 42.054,109.009C41.114,109.599 39.704,109.359 37.844,108.279L31.634,104.699L31.634,91.749L37.844,95.329C39.597,96.303 41.047,97.743 42.034,99.489Z" style="fill:rgb(182,162,104);fill-rule:nonzero;"/>
            <path id="logoMark_CompoundPathItem_3" d="M76.46,176.55L76.46,176.56L152.9,132.42L76.46,176.55ZM152.9,44.14L152.9,132.42L152.91,132.42L152.9,44.14Z" style="fill:rgb(182,162,104);fill-rule:nonzero;"/>
        </g>
    </g>
</svg>
