<svg viewBox="0 0 240 70" xmlns="http://www.w3.org/2000/svg" fill-rule="evenodd" clip-rule="evenodd" stroke-linejoin="round" stroke-miterlimit="2"><path d="M29.733 34.947c.671.794 1.465 1.893 2.503 3.175a107 107 0 013.053 4.396c1.038 1.648 2.137 3.297 3.175 5.068.977 1.77 1.893 3.419 2.625 5.067h-6.472c-.794-1.526-1.71-3.114-2.625-4.701a149.665 149.665 0 00-2.931-4.58c-.977-1.404-1.954-2.747-2.87-4.03-.977-1.281-1.831-2.38-2.625-3.296-.55.06-1.038.06-1.588.06h-7.021v16.547H9.034V10.951c1.649-.427 3.542-.671 5.617-.854a93.787 93.787 0 015.618-.184c5.922 0 10.502 1.1 13.616 3.358 3.113 2.26 4.64 5.557 4.64 10.014 0 2.809-.733 5.19-2.198 7.205-1.527 2.015-3.725 3.48-6.594 4.457zm-8.976-19.844c-2.503 0-4.457.061-5.8.183v15.936h4.213c2.015 0 3.846-.122 5.495-.305a12.83 12.83 0 004.152-1.16c1.099-.55 1.954-1.404 2.564-2.442.61-1.038.916-2.382.916-4.091 0-1.588-.305-2.93-.916-3.969-.61-1.038-1.404-1.893-2.442-2.503-1.038-.61-2.26-1.038-3.664-1.282a26.554 26.554 0 00-4.518-.367z" fill="#b6a268" fill-rule="nonzero"/><path d="M70.972 17.835a230.84 230.84 0 01-4.274 4.58 370.096 370.096 0 01-4.946 5.19 428.287 428.287 0 01-5.19 5.25 339.24 339.24 0 01-4.824 4.763c1.771 1.22 3.603 2.747 5.557 4.518 1.954 1.77 3.846 3.724 5.74 5.74a84.307 84.307 0 015.311 6.227 55.712 55.712 0 014.09 6.045h-6.96a65.755 65.755 0 00-4.213-5.8c-1.587-1.894-3.236-3.786-5.006-5.557-1.77-1.77-3.603-3.358-5.373-4.885-1.832-1.526-3.603-2.808-5.312-3.846v20.088h-5.923V17.835h5.923v18.684a289.689 289.689 0 004.701-4.58 198.3 198.3 0 005.068-5.068c1.648-1.71 3.236-3.358 4.762-4.945 1.466-1.527 2.687-2.93 3.725-4.091h7.144zm18.071 13.282c.214.253.468.604.799 1.013.312.43.643.897.974 1.404.332.526.682 1.052 1.014 1.617.312.565.604 1.092.838 1.618h-2.066c-.253-.487-.546-.994-.838-1.5a47.772 47.772 0 00-.936-1.463c-.311-.448-.623-.877-.916-1.286a22.15 22.15 0 00-.838-1.052c-.175.02-.33.02-.506.02h-2.242v5.28h-1.89v-13.31c.526-.137 1.13-.215 1.793-.273a29.936 29.936 0 011.793-.058c1.89 0 3.352.35 4.346 1.071.994.722 1.481 1.774 1.481 3.197 0 .896-.234 1.656-.701 2.3-.488.642-1.19 1.11-2.105 1.422zm-2.865-6.334c-.8 0-1.423.02-1.852.059v5.086h1.345c.643 0 1.228-.039 1.754-.097a4.095 4.095 0 001.325-.37 1.98 1.98 0 00.819-.78c.195-.331.292-.76.292-1.306 0-.507-.097-.935-.292-1.267a2.19 2.19 0 00-.78-.799 3.455 3.455 0 00-1.169-.409 8.476 8.476 0 00-1.442-.117zm7.757 5.223c0-1.15.175-2.183.526-3.06.331-.877.799-1.617 1.403-2.221a5.617 5.617 0 012.066-1.326 7.078 7.078 0 012.494-.448 6.97 6.97 0 012.475.448 5.79 5.79 0 012.027 1.326c.585.604 1.053 1.344 1.404 2.221.33.877.506 1.91.506 3.06 0 1.15-.175 2.183-.506 3.06-.351.877-.819 1.617-1.404 2.202a5.594 5.594 0 01-2.027 1.345 6.97 6.97 0 01-2.475.448 7.078 7.078 0 01-2.494-.448 5.425 5.425 0 01-2.066-1.345c-.604-.585-1.072-1.325-1.403-2.202-.351-.877-.526-1.91-.526-3.06zm1.987 0c0 .819.098 1.56.312 2.222.215.682.507 1.247.897 1.715.37.468.838.838 1.403 1.072a4.37 4.37 0 001.851.39 4.37 4.37 0 001.852-.39 3.758 3.758 0 001.403-1.072c.37-.468.663-1.033.877-1.715.214-.663.312-1.403.312-2.222 0-.818-.098-1.559-.312-2.241-.214-.663-.507-1.228-.877-1.696a4.025 4.025 0 00-1.403-1.091c-.546-.253-1.17-.37-1.852-.37-.682 0-1.305.117-1.851.37a3.7 3.7 0 00-1.403 1.091c-.39.468-.682 1.033-.897 1.696-.214.682-.312 1.423-.312 2.241zm19.782 4.892c-.137-.312-.293-.702-.507-1.189-.214-.487-.448-.994-.702-1.56-.253-.564-.506-1.13-.78-1.734-.291-.584-.545-1.15-.798-1.676s-.468-.994-.682-1.403c-.215-.41-.39-.74-.526-.955-.137 1.54-.254 3.196-.351 4.97a246.42 246.42 0 00-.234 5.418h-1.852l.176-3.547c.058-1.189.136-2.358.234-3.508.078-1.15.156-2.26.273-3.352.097-1.092.194-2.125.311-3.1h1.657c.35.566.721 1.248 1.13 2.028.41.78.8 1.598 1.209 2.436a96.2 96.2 0 011.169 2.553c.37.857.721 1.637 1.033 2.339.312-.702.662-1.482 1.033-2.339a96.2 96.2 0 011.17-2.553c.408-.838.798-1.657 1.207-2.436.41-.78.78-1.462 1.13-2.027h1.657c.449 4.346.78 8.848.994 13.506h-1.851a246.42 246.42 0 00-.234-5.418c-.097-1.774-.214-3.43-.35-4.97-.137.215-.293.546-.508.955-.214.41-.448.877-.701 1.403-.253.527-.507 1.092-.78 1.676-.292.605-.545 1.17-.799 1.735-.253.565-.467 1.072-.682 1.559-.214.487-.39.877-.526 1.189h-1.52zm19.936 1.871c-.213-.585-.428-1.15-.623-1.735-.195-.565-.39-1.13-.604-1.715h-6.12l-1.227 3.45h-1.969a872.211 872.211 0 001.462-3.976 107.54 107.54 0 011.345-3.45c.429-1.09.857-2.143 1.286-3.137.429-.975.877-1.969 1.345-2.943h1.734c.468.974.916 1.968 1.345 2.943.429.994.858 2.046 1.306 3.138.429 1.09.877 2.24 1.325 3.45.448 1.227.936 2.552 1.462 3.975h-2.066zm-1.773-5.009c-.409-1.13-.818-2.222-1.227-3.293a54.817 54.817 0 00-1.287-3.04 54.817 54.817 0 00-1.286 3.04c-.41 1.071-.818 2.163-1.228 3.293h5.028zm14.929 5.009c-.292-.487-.604-1.014-.974-1.618-.37-.604-.78-1.228-1.209-1.87-.429-.644-.877-1.287-1.325-1.95-.468-.662-.936-1.305-1.384-1.929a79.346 79.346 0 00-1.325-1.735 27.867 27.867 0 00-1.189-1.442V36.77h-1.851V23.263h1.5a44.386 44.386 0 011.969 2.26c.682.878 1.383 1.755 2.066 2.67a90.162 90.162 0 011.929 2.71c.604.877 1.11 1.676 1.52 2.358v-9.998h1.852v13.506h-1.579zm19.43-13.506c-.409.448-.857.935-1.364 1.462-.506.545-1.033 1.091-1.578 1.656-.566.585-1.111 1.13-1.657 1.676s-1.052 1.053-1.54 1.52c.566.39 1.15.877 1.774 1.443a32.48 32.48 0 011.832 1.832 26.91 26.91 0 011.695 1.987c.527.683.955 1.326 1.306 1.93h-2.222a20.988 20.988 0 00-1.344-1.852 27.337 27.337 0 00-1.598-1.773 31.046 31.046 0 00-1.715-1.56 14.117 14.117 0 00-1.696-1.227v6.412h-1.89V23.263h1.89v5.964c.448-.43.955-.916 1.5-1.462a63.296 63.296 0 001.618-1.618l1.52-1.578c.468-.488.858-.936 1.19-1.306h2.28zm7.289 13.798c-.877 0-1.656-.136-2.3-.41-.643-.272-1.188-.642-1.598-1.13a4.516 4.516 0 01-.916-1.676c-.214-.643-.311-1.344-.311-2.104v-8.478h1.89v8.263c0 1.345.292 2.339.897 2.943.604.604 1.383.916 2.338.916.488 0 .916-.078 1.326-.234.39-.136.72-.37 1.013-.682.292-.312.507-.721.663-1.208.155-.468.233-1.053.233-1.735v-8.263h1.89v8.478a7.23 7.23 0 01-.291 2.104 4.85 4.85 0 01-.936 1.677 4.329 4.329 0 01-1.598 1.13c-.643.273-1.423.41-2.3.41zm14.188 0c-.955 0-1.812-.156-2.592-.468a5.488 5.488 0 01-2.007-1.364c-.565-.604-.994-1.345-1.286-2.222-.312-.877-.468-1.87-.468-3 0-1.131.175-2.125.526-3.022a6.332 6.332 0 011.384-2.202 5.804 5.804 0 012.046-1.364 6.678 6.678 0 012.495-.468c.565 0 1.072.04 1.52.117.448.078.818.175 1.17.273.33.097.584.214.798.312.215.097.351.175.429.234l-.546 1.559c-.117-.078-.292-.156-.506-.254-.215-.097-.468-.175-.741-.272-.292-.098-.585-.156-.916-.234a5.918 5.918 0 00-1.013-.078c-.722 0-1.365.117-1.93.37a4.181 4.181 0 00-1.462 1.072c-.409.468-.701 1.033-.916 1.695a7.446 7.446 0 00-.33 2.261c0 .8.097 1.54.292 2.202a4.61 4.61 0 00.838 1.696c.37.487.857.857 1.422 1.11.565.254 1.209.39 1.969.39.877 0 1.598-.097 2.163-.272.565-.176.994-.351 1.286-.487l.487 1.559a3.926 3.926 0 01-.487.234 7.648 7.648 0 01-.877.292 8.63 8.63 0 01-1.228.234c-.467.058-.974.097-1.52.097zm-2.982-17.54l.76-.857 1.89 1.715 1.891-1.715.76.857-2.65 2.787-2.65-2.787zm9.258 17.248V23.263h8.244v1.618h-6.354v4.014h5.652v1.579h-5.652v4.677h6.84v1.618h-8.73zm17.735-5.652c.214.253.467.604.799 1.013.311.43.643.897.974 1.404.331.526.682 1.052 1.014 1.617.311.565.604 1.092.838 1.618h-2.066a41.157 41.157 0 00-.838-1.5 47.772 47.772 0 00-.936-1.463c-.312-.448-.623-.877-.916-1.286a22.15 22.15 0 00-.838-1.052c-.175.02-.331.02-.507.02h-2.24v5.28h-1.891v-13.31c.526-.137 1.13-.215 1.793-.273a29.936 29.936 0 011.793-.058c1.89 0 3.352.35 4.346 1.071.994.722 1.481 1.774 1.481 3.197 0 .896-.234 1.656-.702 2.3-.487.642-1.188 1.11-2.104 1.422zm-2.865-6.334c-.8 0-1.423.02-1.852.059v5.086h1.345c.643 0 1.228-.039 1.754-.097a4.095 4.095 0 001.325-.37 1.98 1.98 0 00.819-.78c.195-.331.292-.76.292-1.306 0-.507-.097-.935-.292-1.267a2.19 2.19 0 00-.78-.799 3.455 3.455 0 00-1.17-.409 8.476 8.476 0 00-1.441-.117zm18.086 11.986c-.215-.585-.43-1.15-.624-1.735-.195-.565-.39-1.13-.604-1.715h-6.12l-1.228 3.45h-1.968c.526-1.423 1.013-2.748 1.462-3.976a107.54 107.54 0 011.344-3.45c.43-1.09.858-2.143 1.287-3.137.428-.975.877-1.969 1.344-2.943h1.735c.468.974.916 1.968 1.345 2.943.428.994.857 2.046 1.305 3.138.43 1.09.877 2.24 1.326 3.45.448 1.227.935 2.552 1.461 3.975h-2.065zm-1.774-5.009c-.41-1.13-.818-2.222-1.228-3.293a54.817 54.817 0 00-1.286-3.04 54.817 54.817 0 00-1.286 3.04c-.41 1.071-.819 2.163-1.228 3.293h5.028zM87.347 50.194v.99h-4.912V43.02h1.143v7.173h3.769zm6.396-2.074c0 .484-.071.931-.212 1.32-.142.389-.342.73-.59 1.013a2.66 2.66 0 01-.918.648 2.7 2.7 0 01-1.154.235 2.7 2.7 0 01-1.155-.235 2.51 2.51 0 01-.907-.648 3.003 3.003 0 01-.6-1.013 3.875 3.875 0 01-.212-1.32c0-.482.07-.918.212-1.318.141-.39.341-.73.6-1.013a2.54 2.54 0 01.907-.66 2.882 2.882 0 011.155-.224c.412 0 .8.07 1.154.224.353.153.66.377.919.66.247.282.447.624.589 1.013.141.4.212.836.212 1.319zm-1.143 0c0-.694-.153-1.236-.46-1.648-.317-.4-.741-.6-1.271-.6-.53 0-.954.2-1.26.6-.319.412-.472.954-.472 1.649 0 .695.153 1.237.471 1.637.307.412.73.613 1.26.613s.955-.2 1.273-.613c.306-.4.46-.942.46-1.637zm4.9-.305c.236.176.483.4.754.671a18 18 0 01.777.86c.248.318.495.636.719.942.224.318.424.624.577.895h-1.284a13.24 13.24 0 00-.565-.848 23.047 23.047 0 00-.683-.824c-.236-.26-.472-.495-.719-.719a6.471 6.471 0 00-.695-.553v2.944h-1.095v-8.952l1.095-.188v5.583l.624-.624c.224-.224.448-.46.672-.695.224-.236.424-.46.624-.683.2-.212.365-.4.507-.566h1.283c-.176.2-.376.413-.589.648-.212.236-.435.471-.66.707-.223.247-.458.483-.682.718-.236.248-.46.472-.66.684zm6.007 2.579c.26 0 .495-.012.695-.023.2-.012.365-.024.495-.06v-1.825a2.24 2.24 0 00-.377-.106 5.098 5.098 0 00-.648-.035c-.165 0-.341.011-.518.035a1.69 1.69 0 00-.507.141 1.124 1.124 0 00-.388.307c-.106.13-.153.306-.153.518 0 .389.13.671.376.813.248.153.59.235 1.025.235zm-.094-5.489c.436 0 .813.06 1.119.165.294.118.542.283.73.483.177.212.306.46.389.742.082.295.118.613.118.954v3.828c-.095.012-.224.036-.389.06a6.793 6.793 0 01-.577.082 43.18 43.18 0 01-.683.07c-.248.012-.495.024-.742.024-.342 0-.66-.035-.954-.106a2.11 2.11 0 01-.754-.342 1.547 1.547 0 01-.495-.6c-.118-.248-.177-.554-.177-.907 0-.342.071-.625.212-.872.13-.247.318-.436.554-.589a2.47 2.47 0 01.824-.33c.318-.07.648-.106.99-.106.106 0 .224 0 .341.012.118.012.236.035.342.047.106.024.188.047.27.059.083.012.13.024.166.035v-.306c0-.177-.024-.365-.06-.542a1.142 1.142 0 00-.211-.47 1.162 1.162 0 00-.412-.33c-.177-.083-.413-.118-.695-.118a5.49 5.49 0 00-.943.07c-.282.06-.483.106-.612.165l-.13-.907c.142-.059.377-.13.707-.188a5.99 5.99 0 011.072-.083zm6.007 6.396c-.671-.012-1.154-.165-1.437-.436-.283-.27-.424-.706-.424-1.284v-7.35l1.095-.188v7.362c0 .176.012.33.048.447a.652.652 0 00.153.283c.07.07.165.118.282.153.118.035.26.07.436.094l-.153.92zm2.474-.118h-1.096v-6.125h1.096v6.125zm-.554-7.232c-.2 0-.365-.07-.495-.2a.658.658 0 01-.212-.518c0-.224.071-.4.212-.53a.666.666 0 01.495-.189c.2 0 .365.06.507.189.13.13.2.306.2.53 0 .223-.07.388-.2.518a.722.722 0 01-.507.2zm6.502 1.932c-.165.177-.377.436-.648.766-.27.33-.565.694-.872 1.095-.318.4-.624.824-.93 1.26-.318.436-.589.86-.825 1.26h3.37v.92h-4.677v-.731c.188-.342.424-.73.695-1.143.27-.412.565-.836.872-1.248.294-.412.588-.801.883-1.166.283-.365.53-.672.742-.919h-3.027v-.919h4.417v.825zm3.557 4.511c.26 0 .495-.012.695-.023.2-.012.365-.024.495-.06v-1.825a2.24 2.24 0 00-.377-.106 5.098 5.098 0 00-.648-.035c-.165 0-.342.011-.518.035a1.69 1.69 0 00-.507.141 1.124 1.124 0 00-.389.307c-.106.13-.153.306-.153.518 0 .389.13.671.377.813.248.153.59.235 1.025.235zm-.094-5.489c.436 0 .813.06 1.119.165.294.118.542.283.73.483.177.212.306.46.389.742.082.295.118.613.118.954v3.828c-.095.012-.224.036-.39.06a6.793 6.793 0 01-.576.082 43.18 43.18 0 01-.683.07c-.248.012-.495.024-.743.024-.341 0-.66-.035-.954-.106a2.11 2.11 0 01-.753-.342 1.547 1.547 0 01-.495-.6c-.118-.248-.177-.554-.177-.907 0-.342.07-.625.212-.872.13-.247.318-.436.554-.589a2.47 2.47 0 01.824-.33c.318-.07.648-.106.99-.106.106 0 .223 0 .341.012.118.012.236.035.342.047.106.024.188.047.27.059.083.012.13.024.166.035v-.306c0-.177-.024-.365-.06-.542a1.142 1.142 0 00-.211-.47 1.162 1.162 0 00-.412-.33c-.177-.083-.413-.118-.695-.118a5.49 5.49 0 00-.943.07c-.282.06-.483.106-.612.165l-.13-.907c.142-.059.377-.13.707-.188a5.99 5.99 0 011.072-.083zm6.831 6.42c-.494 0-.93-.083-1.295-.236a2.477 2.477 0 01-.943-.66 2.775 2.775 0 01-.577-1.013 4.026 4.026 0 01-.188-1.283c0-.472.07-.907.212-1.296.13-.389.33-.73.577-1.025.247-.282.565-.506.93-.671a3.095 3.095 0 011.214-.236c.27 0 .553.024.824.07.271.048.542.119.79.225l-.248.93a2.45 2.45 0 00-.565-.188 3.31 3.31 0 00-.695-.07c-.613 0-1.084.188-1.402.576-.33.389-.495.943-.495 1.685 0 .33.036.636.118.907.07.27.189.506.354.706.153.2.365.342.612.448.247.106.554.165.919.165.294 0 .553-.024.789-.083a3.44 3.44 0 00.554-.176l.153.918a1.26 1.26 0 01-.271.106 5.88 5.88 0 01-.4.106c-.154.024-.307.048-.472.071-.177.012-.341.024-.495.024zm2.474-3.192c0-.542.082-1.013.236-1.426.153-.4.365-.73.624-1 .259-.272.553-.472.895-.602.342-.13.683-.2 1.037-.2.824 0 1.46.26 1.896.766.436.518.66 1.307.66 2.356v.176c0 .083 0 .153-.012.212h-4.193c.047.636.235 1.12.553 1.45.318.329.825.494 1.508.494.388 0 .707-.036.977-.106.26-.06.46-.13.59-.189l.152.92c-.13.07-.365.14-.694.223a4.867 4.867 0 01-1.143.118c-.53 0-.99-.083-1.378-.248a2.475 2.475 0 01-.966-.66 2.73 2.73 0 01-.554-1.012 4.002 4.002 0 01-.188-1.272zm4.205-.601c.012-.495-.118-.907-.365-1.225-.26-.318-.613-.471-1.06-.471-.248 0-.471.047-.66.141a1.66 1.66 0 00-.495.389c-.13.153-.235.341-.306.542-.082.2-.13.412-.153.624h3.039zm5.442-2.297c.247-.059.589-.13 1-.2.413-.07.896-.106 1.438-.106.483 0 .895.07 1.213.2.318.141.577.33.777.577.189.248.318.554.4.895.083.342.119.73.119 1.143v3.44h-1.096v-3.205c0-.376-.023-.694-.07-.965-.06-.271-.142-.483-.26-.648a1.045 1.045 0 00-.47-.365 2.166 2.166 0 00-.73-.106c-.119 0-.236 0-.366.011-.13.012-.247.012-.353.024-.118.024-.224.035-.307.047a1.287 1.287 0 00-.2.035v5.171h-1.095v-5.948zm6.419 2.898c0-.542.082-1.013.236-1.426.153-.4.365-.73.624-1 .259-.272.553-.472.895-.602.342-.13.683-.2 1.037-.2.824 0 1.46.26 1.896.766.436.518.66 1.307.66 2.356v.176c0 .083 0 .153-.012.212h-4.193c.047.636.235 1.12.553 1.45.318.329.825.494 1.508.494.389 0 .707-.036.977-.106.26-.06.46-.13.59-.189l.153.92c-.13.07-.366.14-.695.223a4.867 4.867 0 01-1.143.118c-.53 0-.99-.083-1.378-.248a2.475 2.475 0 01-.966-.66 2.73 2.73 0 01-.553-1.012 4.002 4.002 0 01-.189-1.272zm4.205-.601c.012-.495-.118-.907-.365-1.225-.26-.318-.613-.471-1.06-.471-.248 0-.471.047-.66.141-.2.106-.365.236-.494.389-.13.153-.236.341-.307.542-.082.2-.13.412-.153.624h3.039zm3.746-2.474h2.32v.92h-2.32v2.826c0 .306.023.554.07.754.047.2.118.365.212.471.095.118.212.2.354.247.141.047.306.071.494.071.33 0 .601-.035.801-.118.189-.07.33-.118.413-.153l.212.907c-.106.059-.307.118-.578.212-.27.083-.588.118-.942.118-.412 0-.754-.047-1.025-.165a1.508 1.508 0 01-.66-.471 1.79 1.79 0 01-.34-.79 4.781 4.781 0 01-.107-1.071V43.35l1.096-.188v1.896zm3.251 3.075c0-.542.082-1.013.235-1.426.153-.4.365-.73.624-1 .26-.272.554-.472.896-.602.341-.13.683-.2 1.036-.2.825 0 1.46.26 1.896.766.436.518.66 1.307.66 2.356v.176c0 .083 0 .153-.012.212h-4.193c.047.636.236 1.12.554 1.45.318.329.824.494 1.507.494.39 0 .707-.036.978-.106.26-.06.46-.13.589-.189l.153.92c-.13.07-.365.14-.695.223a4.867 4.867 0 01-1.142.118c-.53 0-.99-.083-1.379-.248a2.475 2.475 0 01-.965-.66 2.73 2.73 0 01-.554-1.012 4.002 4.002 0 01-.188-1.272zm4.205-.601c.011-.495-.118-.907-.366-1.225-.259-.318-.612-.471-1.06-.471-.247 0-.47.047-.66.141-.2.106-.364.236-.494.389-.13.153-.236.341-.306.542-.083.2-.13.412-.153.624h3.039zm-3.04-4.935l.46-.519 1.143 1.037 1.142-1.037.46.519-1.602 1.684-1.602-1.684zm7.186 7.797c.447 0 .777-.059 1-.177.213-.117.319-.306.319-.565a.741.741 0 00-.318-.636c-.212-.153-.566-.33-1.048-.53a8.849 8.849 0 01-.672-.294 2.185 2.185 0 01-.565-.342 1.529 1.529 0 01-.377-.483 1.555 1.555 0 01-.141-.695c0-.542.2-.978.6-1.296.4-.318.943-.47 1.637-.47.177 0 .342.011.519.023.176.023.33.047.483.07.153.036.282.06.4.095.106.035.2.059.26.082l-.201.942a3.418 3.418 0 00-.554-.2 3.972 3.972 0 00-.907-.094 1.71 1.71 0 00-.8.177.628.628 0 00-.342.577c0 .13.023.247.082.353.048.106.13.189.236.271.106.083.236.165.389.236.153.07.341.141.565.223.295.106.554.212.777.318.224.107.424.236.59.377.152.142.282.307.365.507.082.2.13.447.13.742 0 .565-.213.99-.625 1.284-.424.294-1.025.436-1.802.436-.542 0-.966-.047-1.272-.13a6.931 6.931 0 01-.625-.212l.2-.942c.13.047.33.118.601.212.271.094.636.141 1.096.141zm3.828-5.159c.247-.059.589-.13 1-.2.413-.07.896-.106 1.438-.106.483 0 .895.07 1.213.2.318.141.577.33.778.577a2.4 2.4 0 01.4.895c.082.342.118.73.118 1.143v3.44h-1.096v-3.205c0-.376-.023-.694-.07-.965-.06-.271-.142-.483-.26-.648a1.045 1.045 0 00-.47-.365 2.166 2.166 0 00-.73-.106c-.119 0-.236 0-.366.011-.13.012-.247.012-.353.024-.118.024-.224.035-.307.047a1.287 1.287 0 00-.2.035v5.171h-1.095v-5.948zm12.167 2.885c0 .484-.07.931-.212 1.32-.141.389-.341.73-.589 1.013a2.66 2.66 0 01-.919.648 2.7 2.7 0 01-1.154.235 2.7 2.7 0 01-1.154-.235 2.51 2.51 0 01-.907-.648 3.003 3.003 0 01-.6-1.013 3.875 3.875 0 01-.213-1.32c0-.482.07-.918.212-1.318.141-.39.342-.73.6-1.013a2.54 2.54 0 01.908-.66 2.882 2.882 0 011.154-.224c.412 0 .801.07 1.154.224.354.153.66.377.92.66.247.282.447.624.588 1.013.141.4.212.836.212 1.319zm-1.142 0c0-.694-.154-1.236-.46-1.648-.318-.4-.742-.6-1.272-.6s-.954.2-1.26.6c-.318.412-.471.954-.471 1.649 0 .695.153 1.237.47 1.637.307.412.731.613 1.261.613.53 0 .954-.2 1.272-.613.306-.4.46-.942.46-1.637zm4.11 2.274c.448 0 .778-.059 1.002-.177.212-.117.318-.306.318-.565a.741.741 0 00-.318-.636c-.212-.153-.566-.33-1.049-.53a8.849 8.849 0 01-.671-.294 2.185 2.185 0 01-.566-.342 1.529 1.529 0 01-.376-.483 1.555 1.555 0 01-.142-.695c0-.542.2-.978.601-1.296.4-.318.942-.47 1.637-.47.177 0 .342.011.518.023.177.023.33.047.483.07.154.036.283.06.4.095.107.035.201.059.26.082l-.2.942a3.418 3.418 0 00-.554-.2 3.972 3.972 0 00-.907-.094 1.71 1.71 0 00-.8.177.628.628 0 00-.342.577c0 .13.023.247.082.353.047.106.13.189.236.271.106.083.235.165.388.236.154.07.342.141.566.223.294.106.553.212.777.318.224.107.424.236.59.377.152.142.282.307.364.507.083.2.13.447.13.742 0 .565-.212.99-.624 1.284-.425.294-1.025.436-1.803.436-.541 0-.965-.047-1.272-.13a6.931 6.931 0 01-.624-.212l.2-.942c.13.047.33.118.601.212.27.094.636.141 1.095.141zm4.853-5.336h2.32v.92h-2.32v2.826c0 .306.024.554.07.754.048.2.119.365.213.471.094.118.212.2.353.247.142.047.306.071.495.071.33 0 .6-.035.8-.118.19-.07.33-.118.413-.153l.212.907c-.106.059-.306.118-.577.212-.27.083-.589.118-.942.118-.413 0-.754-.047-1.025-.165a1.508 1.508 0 01-.66-.471 1.79 1.79 0 01-.341-.79 4.781 4.781 0 01-.106-1.071V43.35l1.095-.188v1.896zm4.805 6.125h-1.095v-6.125h1.096v6.125zm.884-8.445l-1.66 1.614-.554-.495 1.508-1.814.706.695zm5.148 7.656c.447 0 .777-.059 1.001-.177.212-.117.318-.306.318-.565a.741.741 0 00-.318-.636c-.212-.153-.565-.33-1.048-.53a8.849 8.849 0 01-.672-.294 2.185 2.185 0 01-.565-.342 1.529 1.529 0 01-.377-.483 1.555 1.555 0 01-.141-.695c0-.542.2-.978.6-1.296.4-.318.943-.47 1.638-.47.176 0 .341.011.518.023.177.023.33.047.483.07.153.036.282.06.4.095.106.035.2.059.26.082l-.2.942a3.418 3.418 0 00-.554-.2 3.972 3.972 0 00-.907-.094 1.71 1.71 0 00-.801.177.628.628 0 00-.342.577c0 .13.024.247.083.353a.73.73 0 00.235.271c.106.083.236.165.389.236.153.07.341.141.565.223.295.106.554.212.778.318.223.107.424.236.589.377.153.142.282.307.365.507.082.2.13.447.13.742 0 .565-.213.99-.625 1.284-.424.294-1.025.436-1.802.436-.542 0-.966-.047-1.272-.13a6.931 6.931 0 01-.625-.212l.2-.942c.13.047.33.118.601.212.271.094.636.141 1.096.141zm4.852-5.336h2.32v.92h-2.32v2.826c0 .306.024.554.071.754.047.2.118.365.212.471.094.118.212.2.353.247.142.047.307.071.495.071.33 0 .6-.035.801-.118.188-.07.33-.118.412-.153l.212.907c-.106.059-.306.118-.577.212-.27.083-.589.118-.942.118-.412 0-.754-.047-1.025-.165a1.508 1.508 0 01-.66-.471 1.79 1.79 0 01-.341-.79 4.781 4.781 0 01-.106-1.071V43.35l1.095-.188v1.896zm5.972-.129c.094 0 .2 0 .33.012.118.011.235.035.353.047.118.023.224.047.33.059.094.023.165.047.212.058l-.188.955a3.077 3.077 0 00-.424-.118c-.2-.036-.46-.06-.778-.06-.2 0-.4.024-.6.06-.2.047-.342.082-.401.094v5.147h-1.095v-5.865a6.226 6.226 0 012.262-.389zm-2.108-2.332l.459-.519 1.143 1.037 1.142-1.037.46.519-1.602 1.684-1.602-1.684zm4.052 5.536c0-.542.082-1.013.235-1.426.153-.4.365-.73.625-1 .259-.272.553-.472.895-.602.341-.13.683-.2 1.036-.2.825 0 1.46.26 1.897.766.435.518.66 1.307.66 2.356v.176c0 .083 0 .153-.013.212h-4.193c.047.636.236 1.12.554 1.45.318.329.824.494 1.508.494.388 0 .706-.036.977-.106.26-.06.46-.13.59-.189l.152.92c-.13.07-.365.14-.695.223a4.867 4.867 0 01-1.142.118c-.53 0-.99-.083-1.378-.248a2.475 2.475 0 01-.966-.66 2.73 2.73 0 01-.554-1.012 4.002 4.002 0 01-.188-1.272zm4.205-.601c.011-.495-.118-.907-.365-1.225-.26-.318-.613-.471-1.06-.471a1.47 1.47 0 00-.66.141 1.66 1.66 0 00-.495.389c-.13.153-.235.341-.306.542-.083.2-.13.412-.153.624h3.039zm5.383 3.793c-.495 0-.93-.083-1.296-.236a2.477 2.477 0 01-.942-.66 2.775 2.775 0 01-.577-1.013 4.026 4.026 0 01-.189-1.283c0-.472.07-.907.212-1.296.13-.389.33-.73.577-1.025.248-.282.566-.506.93-.671a3.095 3.095 0 011.214-.236c.27 0 .554.024.824.07.271.048.542.119.79.225l-.248.93a2.45 2.45 0 00-.565-.188 3.31 3.31 0 00-.695-.07c-.613 0-1.084.188-1.402.576-.33.389-.494.943-.494 1.685 0 .33.035.636.117.907.071.27.189.506.354.706.153.2.365.342.612.448.248.106.554.165.919.165.294 0 .554-.024.79-.083a3.44 3.44 0 00.553-.176l.153.918a1.238 1.238 0 01-.271.106 5.727 5.727 0 01-.4.106c-.154.024-.307.048-.472.071-.176.012-.341.024-.494.024zm2.814-.142v-8.952l1.096-.188v3.133c.2-.082.424-.141.66-.188.223-.036.459-.06.682-.06.483 0 .896.071 1.214.201.318.141.577.33.777.577a2.4 2.4 0 01.4.895c.083.342.118.73.118 1.143v3.44h-1.095v-3.205a5.81 5.81 0 00-.07-.965c-.06-.271-.142-.483-.26-.648a1.045 1.045 0 00-.471-.365 2.166 2.166 0 00-.73-.106c-.118 0-.236.011-.366.023s-.247.036-.353.047a4.118 4.118 0 00-.306.071 2.667 2.667 0 00-.2.059v5.088h-1.096z" fill="#b6a268" fill-rule="nonzero"/></svg>