<svg viewBox="0 0 730 177" xmlns="http://www.w3.org/2000/svg" fill-rule="evenodd" clip-rule="evenodd" stroke-linejoin="round" stroke-miterlimit="2"><g fill="#b6a268" fill-rule="nonzero"><path d="M238.284 70.549a17.253 17.253 0 007.62-6.4 18.736 18.736 0 002.43-9.96c0-5.53-1.924-9.81-5.77-12.84-3.85-3.03-9.19-4.543-16.02-4.54h-22.66v57.58h13.88v-20.37h7.51l10.17 20.37h14.87v-.59l-12.03-23.25zm-5.79-9.29c-1.33 1.39-3.32 2.09-5.95 2.09h-8.78v-15.86h8.78c2.61 0 4.59.7 5.93 2.12a8.111 8.111 0 012.02 5.85 8.036 8.036 0 01-2 5.8zM290.184 56.759c-3.69-3.97-8.74-5.954-15.15-5.95a21.506 21.506 0 00-10.96 2.69 17.831 17.831 0 00-7.16 7.69 25.278 25.278 0 00-2.49 11.41l.04 2.25c.29 6.25 2.28 11.203 5.97 14.86 3.7 3.65 8.593 5.473 14.68 5.47 6.33 0 11.346-1.957 15.05-5.87 3.7-3.91 5.55-9.203 5.55-15.88v-.47c-.001-6.83-1.844-12.231-5.53-16.2zm-7.79 17.19c-.11 7.3-2.537 10.95-7.28 10.95a6.193 6.193 0 01-5.5-2.77c-1.24-1.84-1.86-4.74-1.86-8.7l.04-2.41c.37-6.62 2.783-9.93 7.24-9.93 4.9 0 7.353 3.836 7.36 11.51v1.35zM350.374 50.809c-5.481 0-9.671 2.146-12.57 6.44-1.901-4.29-5.554-6.437-10.96-6.44a14.724 14.724 0 00-12.22 5.81l-.44-5.02h-12.491v42.79h13.32v-29.78a6.408 6.408 0 015.861-3.521c2 0 3.36.5 4.069 1.5a8.626 8.626 0 011.07 4.87v26.93h13.37v-29.23l-.04-.55a6.31 6.31 0 015.89-3.52c1.95 0 3.3.5 4.04 1.5a8.26 8.26 0 011.101 4.79v27.01h13.37v-27.84c-.241-10.49-4.697-15.736-13.37-15.739zM406.974 84.699v-18.94a13.933 13.933 0 00-4.86-10.96c-3.17-2.66-7.484-3.99-12.94-3.99-5.45 0-9.937 1.29-13.46 3.87a11.955 11.955 0 00-5.28 10.07h13.32c0-3.12 1.59-4.69 4.75-4.69 3.4 0 5.1 1.98 5.1 5.92v2.27h-4.11c-6.54 0-11.524 1.186-14.95 3.56-3.431 2.37-5.144 5.877-5.14 10.52a11.666 11.666 0 004.23 9.2 15.227 15.227 0 0010.28 3.65c4.41 0 7.83-1.54 10.29-4.62a15.312 15.312 0 001.26 3.83h13.33v-.67c-1.161-2.08-1.767-5.087-1.82-9.02zm-13.37-2.49a6.638 6.638 0 01-2.35 2.41 7.357 7.357 0 01-4.13 1.07 4.415 4.415 0 01-3.13-1.13 3.79 3.79 0 01-1.22-2.94c0-4.17 2.32-6.253 6.96-6.25h3.87v6.84zM449.233 54.799c-2.2-2.66-5.53-3.99-9.99-3.99a14.547 14.547 0 00-12.22 5.81l-.43-5.02h-12.5v42.79h13.33v-30.21a6.35 6.35 0 015.81-3.09c2.3 0 3.88.51 4.75 1.52a7.242 7.242 0 011.3 4.77v27.01h13.37v-27.56c-.079-5.36-1.219-9.36-3.42-12.03zM529.104 36.809h-17.16l-12.42 18.07-4.82 7.32v-25.39h-13.89v57.58h13.89v-15.18l5.69-6.25 12.26 21.43h16.45l-19.45-32.11 19.45-25.47zM556.084 51.599v30.02c-1.291 2.19-3.467 3.283-6.53 3.28-3.56 0-5.34-1.834-5.34-5.5v-27.8h-13.331v27.72c0 5.119 1.207 9.043 3.62 11.77 2.42 2.73 5.974 4.093 10.66 4.09a13.747 13.747 0 0011.43-5.41l.4 4.62h12.5v-42.79h-13.409zM600.064 33.599l-5.81 5.3-5.82-5.3h-11.471v.36l12.981 11.27h8.58l12.89-11.19v-.44h-11.35zm-.831 49.78a5.955 5.955 0 01-4.35 1.52 5.363 5.363 0 01-4.91-2.49c-1.019-1.66-1.539-4.64-1.539-8.94-.03-1.928.064-3.855.279-5.77.581-4.411 2.597-6.614 6.05-6.61a5.582 5.582 0 014.35 1.78 7.326 7.326 0 011.62 5.1h12.5c0-5.27-1.633-9.447-4.899-12.53-3.27-3.09-7.687-4.634-13.25-4.63a20.543 20.543 0 00-10.68 2.67 17.349 17.349 0 00-6.9 7.63 26.005 26.005 0 00-2.4 11.45v.55c0 6.909 1.793 12.316 5.38 16.22 3.59 3.9 8.497 5.85 14.72 5.85 5.3 0 9.63-1.5 12.99-4.5a14.827 14.827 0 005.04-11.55h-12.5a5.561 5.561 0 01-1.501 4.249v.001zM657.613 72.009c0-6.671-1.74-11.874-5.22-15.61-3.48-3.731-8.226-5.594-14.24-5.59a21.377 21.377 0 00-11.08 2.75 17.834 17.834 0 00-7.1 7.77 26.314 26.314 0 00-2.43 11.59v1.1c0 6.28 2.03 11.376 6.09 15.29 4.06 3.92 9.374 5.876 15.94 5.87a23.84 23.84 0 009.83-2.03 17.043 17.043 0 007.06-5.48l-6.09-7.2a11.998 11.998 0 01-9.89 4.43 9.257 9.257 0 01-6.25-2.061 9.553 9.553 0 01-3.12-5.65h26.5v-5.179zm-13.06-3.17h-13.44c.74-5.16 3.06-7.743 6.96-7.75a6.45 6.45 0 014.86 1.76 6.54 6.54 0 011.62 4.96v1.03zM685.374 50.809c-4.011 0-7.134 2.096-9.37 6.29l-.44-5.5h-12.5v42.79h13.33v-27.09c1.19-2.64 3.88-3.957 8.07-3.95l4.39.31.24-12.38a13.168 13.168 0 00-3.72-.47zM728.093 84.699v-18.94c-.079-4.64-1.703-8.294-4.87-10.96-3.16-2.66-7.47-3.99-12.93-3.99s-9.95 1.29-13.47 3.87a11.96 11.96 0 00-5.28 10.07h13.33c0-3.12 1.58-4.69 4.75-4.69 3.4 0 5.1 1.98 5.1 5.92v2.27h-4.11c-6.539 0-11.523 1.186-14.95 3.56-3.43 2.37-5.147 5.877-5.15 10.52a11.648 11.648 0 004.24 9.2 15.205 15.205 0 0010.28 3.65c4.4 0 7.827-1.54 10.28-4.62a14.915 14.915 0 001.27 3.83h13.33v-.67c-1.16-2.08-1.766-5.087-1.82-9.02zm-13.37-2.49a6.717 6.717 0 01-2.35 2.41 7.416 7.416 0 01-4.14 1.07 4.408 4.408 0 01-3.12-1.13 3.8 3.8 0 01-1.23-2.94c0-4.17 2.32-6.253 6.96-6.25h3.88v6.84zM205.843 141.299v-21.06h-1.93v22.68h13.12v-1.62h-11.19zM232.204 128.109a6.942 6.942 0 00-5.45-2.36 7.1 7.1 0 00-6.56 4.12 9.837 9.837 0 00-.95 4.37v.38a9.072 9.072 0 002.1 6.25 6.941 6.941 0 005.44 2.36 7.345 7.345 0 003.91-1.06 7.006 7.006 0 002.65-3.01c.647-1.379.972-2.887.95-4.41v-.38a9.124 9.124 0 00-2.09-6.26zm.23 6.49a7.947 7.947 0 01-1.56 5.12 5.312 5.312 0 01-8.19 0 7.699 7.699 0 01-1.57-4.97v-.34a7.895 7.895 0 011.58-5.11 4.973 4.973 0 014.06-1.96 5.189 5.189 0 012.96.88 5.827 5.827 0 012.01 2.49 8.5 8.5 0 01.71 3.53v.36zM243.414 133.168l7.15-7.1h-2.35l-6.45 6.33-1.76 1.9v-15.3h-1.87v23.92h1.87v-6.44l2.13-2.05 6.82 8.49h2.23l-7.77-9.75zM265.874 139.069v-7.97a5.03 5.03 0 00-1.68-3.93 6.49 6.49 0 00-4.441-1.42 7.168 7.168 0 00-4.6 1.48 4.353 4.353 0 00-1.87 3.48l1.87.01a2.961 2.961 0 011.28-2.39 5.058 5.058 0 013.221-1 4.59 4.59 0 013.25 1.03 3.711 3.711 0 011.11 2.85v1.91h-3.38a9.857 9.857 0 00-5.7 1.43 4.52 4.52 0 00-2.05 3.9 4.4 4.4 0 001.5 3.42 5.66 5.66 0 003.93 1.36 7.541 7.541 0 003.22-.7 6.568 6.568 0 002.5-1.97 8.62 8.62 0 00.36 2.36h1.99v-.19a9.954 9.954 0 01-.51-3.66zm-1.861-.81a5.24 5.24 0 01-2.14 2.41 6.18 6.18 0 01-3.34.91 3.923 3.923 0 01-2.73-.94 3.017 3.017 0 01-1.05-2.35 3.066 3.066 0 011.57-2.72 8.33 8.33 0 014.36-1.02h3.33v3.71zM271.053 118.998h1.87v23.92h-1.87zM278.204 126.069v16.85h1.87v-16.85h-1.87zm1.89-5.76a1.412 1.412 0 00-1.88 0 1.277 1.277 0 00-.34.89c.04.692.621 1.24 1.314 1.24.337 0 .661-.129.906-.36.235-.231.363-.551.35-.88a1.203 1.203 0 00-.351-.89h.001zM286.363 141.338l10.26-13.87v-1.4h-12.25v1.62h9.9l-10.21 13.85v1.38h13.25v-1.58h-10.95zM312.753 139.069v-7.97a5.05 5.05 0 00-1.67-3.93 6.514 6.514 0 00-4.45-1.42 7.166 7.166 0 00-4.59 1.48 4.324 4.324 0 00-1.87 3.48l1.87.01a2.959 2.959 0 011.28-2.39 5.031 5.031 0 013.22-1 4.623 4.623 0 013.25 1.03 3.704 3.704 0 011.11 2.85v1.91h-3.38a9.842 9.842 0 00-5.7 1.43 4.525 4.525 0 00-2.05 3.9 4.407 4.407 0 001.5 3.42 5.664 5.664 0 003.93 1.36 7.564 7.564 0 003.22-.7 6.543 6.543 0 002.5-1.97c.014.798.131 1.592.35 2.36h2v-.19a9.727 9.727 0 01-.52-3.66zm-1.85-.81a5.24 5.24 0 01-2.14 2.41 6.202 6.202 0 01-3.34.91 3.925 3.925 0 01-2.73-.94 3.02 3.02 0 01-1.05-2.35 3.068 3.068 0 011.57-2.72 8.33 8.33 0 014.36-1.02h3.33v3.71zM327.213 140.559a4.925 4.925 0 01-3.26 1.09 4.692 4.692 0 01-3.93-1.8 8.069 8.069 0 01-1.4-5.03v-.55a8.26 8.26 0 011.4-5.11 5.065 5.065 0 017.19-.6 4.593 4.593 0 011.43 3.19h1.79a6.066 6.066 0 00-1.93-4.35 6.517 6.517 0 00-4.57-1.65 6.831 6.831 0 00-3.8 1.05 6.638 6.638 0 00-2.5 2.96 10.354 10.354 0 00-.88 4.4v.56a9.322 9.322 0 001.94 6.2 6.532 6.532 0 005.26 2.31 7.072 7.072 0 003.15-.72 6.045 6.045 0 002.36-1.99c.587-.824.924-1.8.97-2.81h-1.79a3.903 3.903 0 01-1.43 2.85zM347.003 134.619v-1.05a8.486 8.486 0 00-1.8-5.72 6.079 6.079 0 00-4.87-2.1c-1.298 0-2.566.39-3.64 1.12a7.505 7.505 0 00-2.63 3.06 10.006 10.006 0 00-.94 4.37v.67a9.148 9.148 0 00.97 4.25 7.213 7.213 0 002.7 2.95 7.376 7.376 0 003.88 1.06 6.798 6.798 0 005.97-2.98l-1.17-.89a5.846 5.846 0 01-2.08 1.75 6.119 6.119 0 01-2.64.54 5.217 5.217 0 01-4.13-1.9 7.074 7.074 0 01-1.65-4.78v-.35h12.03zm-10.21-5.73a4.656 4.656 0 013.54-1.55 4.312 4.312 0 013.43 1.53 6.199 6.199 0 011.38 3.96v.2h-10.1a7.037 7.037 0 011.75-4.14zM369.753 127.279a5.069 5.069 0 00-4.04-1.53 6.214 6.214 0 00-3.13.82 6.726 6.726 0 00-2.36 2.38l-.07-2.88h-1.77v16.85h1.85v-11.54a6.333 6.333 0 011.97-2.92 4.735 4.735 0 013.06-1.09 3.726 3.726 0 013.01 1.11 5.132 5.132 0 01.96 3.36v11.08h1.85v-11.06a6.833 6.833 0 00-1.33-4.58zM388.744 134.619v-1.05a8.54 8.54 0 00-1.79-5.72 6.08 6.08 0 00-4.87-2.1c-1.298 0-2.567.39-3.64 1.12a7.421 7.421 0 00-2.63 3.06 9.858 9.858 0 00-.94 4.37v.67a9.25 9.25 0 00.96 4.25 7.26 7.26 0 006.59 4.01 6.8 6.8 0 005.97-2.98l-1.17-.89a5.95 5.95 0 01-2.08 1.75 6.125 6.125 0 01-2.64.54 5.215 5.215 0 01-4.13-1.9 7.064 7.064 0 01-1.65-4.78v-.35h12.02zm-10.2-5.73a4.655 4.655 0 013.54-1.55 4.281 4.281 0 013.42 1.53 6.154 6.154 0 011.39 3.96v.2h-10.1a7.03 7.03 0 011.749-4.14h.001zM398.974 141.449c-.499.089-1.004.143-1.51.16a1.974 1.974 0 01-1.69-.69 3.574 3.574 0 01-.5-2.09v-11.24h3.49v-1.52h-3.49v-4.32h-1.87v4.32h-3.1v1.52h3.1v11.24a5.24 5.24 0 00.87 3.28 3.31 3.31 0 002.79 1.12 5.886 5.886 0 001.99-.27l-.08-1.51zM411.673 119.219l-2.68 3.02-2.68-3.02h-1.67v.17l3.68 4.07h1.34l3.67-4.06v-.18h-1.66zm3.79 15.4v-1.05a8.54 8.54 0 00-1.79-5.72 6.079 6.079 0 00-4.87-2.1c-1.298 0-2.566.39-3.64 1.12a7.429 7.429 0 00-2.63 3.06 10.006 10.006 0 00-.94 4.37v.67a9.148 9.148 0 00.97 4.25 7.213 7.213 0 002.7 2.95 7.376 7.376 0 003.88 1.06 6.798 6.798 0 005.97-2.98l-1.17-.89a5.836 5.836 0 01-2.08 1.75 6.104 6.104 0 01-2.64.54 5.216 5.216 0 01-4.13-1.9 7.074 7.074 0 01-1.65-4.78v-.35h12.02zm-10.2-5.73a4.655 4.655 0 013.54-1.55 4.313 4.313 0 013.43 1.53 6.193 6.193 0 011.38 3.96v.2h-10.1a7.02 7.02 0 011.751-4.14h-.001zM430.463 136.309a4.78 4.78 0 00-1.81-1.57 15.498 15.498 0 00-3.68-1.23 9.844 9.844 0 01-3.38-1.27 2.308 2.308 0 01-.92-1.95 2.543 2.543 0 011.11-2.13 4.881 4.881 0 012.95-.82 4.812 4.812 0 013.12.99 2.988 2.988 0 011.24 2.45h1.87a4.463 4.463 0 00-1.71-3.63 6.896 6.896 0 00-4.52-1.4 6.747 6.747 0 00-4.27 1.31 3.994 3.994 0 00-1.66 3.29c-.023.76.187 1.511.6 2.15a4.676 4.676 0 001.83 1.5c1.116.5 2.288.866 3.49 1.09a8.614 8.614 0 013.35 1.32 2.649 2.649 0 011.11 2.22 2.57 2.57 0 01-1.2 2.17 5.286 5.286 0 01-3.14.85 5.646 5.646 0 01-3.36-.91 3.225 3.225 0 01-1.37-2.54h-1.87a4.388 4.388 0 001.83 3.6 7.55 7.55 0 004.77 1.43 7.355 7.355 0 004.49-1.28 4.033 4.033 0 001.72-3.41 4.088 4.088 0 00-.59-2.23zM446.613 127.279a5.057 5.057 0 00-4.04-1.53 6.155 6.155 0 00-3.12.82 6.665 6.665 0 00-2.37 2.38l-.06-2.88h-1.78v16.85h1.85v-11.54a6.412 6.412 0 011.97-2.92 4.74 4.74 0 013.06-1.09 3.763 3.763 0 013.02 1.11 5.19 5.19 0 01.95 3.36v11.08h1.86v-11.06a6.891 6.891 0 00-1.34-4.58zM464.693 128.109a6.94 6.94 0 00-5.45-2.36 7.101 7.101 0 00-6.56 4.12 9.837 9.837 0 00-.95 4.37v.38a9.082 9.082 0 002.1 6.25 6.941 6.941 0 005.44 2.36 7.345 7.345 0 003.91-1.06 7.08 7.08 0 002.65-3.01c.647-1.379.972-2.887.95-4.41v-.38a9.12 9.12 0 00-2.09-6.26zm.23 6.49a7.935 7.935 0 01-1.56 5.12 5.322 5.322 0 01-8.2 0 7.705 7.705 0 01-1.56-4.97v-.34a7.953 7.953 0 011.57-5.11 5.01 5.01 0 014.07-1.96 5.204 5.204 0 012.96.88 5.73 5.73 0 012 2.49 8.491 8.491 0 01.72 3.53v.36zM481.994 136.309a4.832 4.832 0 00-1.82-1.57 15.261 15.261 0 00-3.67-1.23 9.83 9.83 0 01-3.38-1.27 2.287 2.287 0 01-.93-1.95 2.525 2.525 0 011.12-2.13 4.886 4.886 0 012.95-.82 4.832 4.832 0 013.12.99 2.994 2.994 0 011.24 2.45h1.87a4.468 4.468 0 00-1.71-3.63 6.91 6.91 0 00-4.52-1.4 6.704 6.704 0 00-4.27 1.31 3.988 3.988 0 00-1.66 3.29c-.023.76.186 1.511.6 2.15a4.661 4.661 0 001.83 1.5c1.112.499 2.281.865 3.48 1.09 1.2.198 2.345.648 3.36 1.32a2.654 2.654 0 011.11 2.22 2.573 2.573 0 01-1.2 2.17 5.312 5.312 0 01-3.14.85 5.642 5.642 0 01-3.36-.91 3.258 3.258 0 01-1.38-2.54h-1.86a4.375 4.375 0 001.82 3.6 7.597 7.597 0 004.78 1.43 7.359 7.359 0 004.49-1.28 4.035 4.035 0 001.72-3.41 4.105 4.105 0 00-.59-2.23zM493.373 141.449c-.498.089-1.003.142-1.509.16a1.96 1.96 0 01-1.69-.69 3.497 3.497 0 01-.5-2.09v-11.24h3.48v-1.52h-3.48v-4.32h-1.87v4.32h-3.101v1.52h3.101v11.24a5.24 5.24 0 00.87 3.28 3.309 3.309 0 002.789 1.12 5.945 5.945 0 001.991-.27l-.081-1.51zM497.204 126.069v16.85h1.87v-16.85h-1.87zm2.84-6.89l-2.98 4.36h1.64l3.6-4.36h-2.26zM523.704 128.039a5.633 5.633 0 00-4.74-2.291 5.973 5.973 0 00-5.28 2.701l-.09-2.38h-1.73v23.32h1.85v-8.59a6.235 6.235 0 005.29 2.43 5.563 5.563 0 004.68-2.32 10.154 10.154 0 001.74-6.25v-.26a10.386 10.386 0 00-1.72-6.36zm-1.46 11.74a4.237 4.237 0 01-3.67 1.87 5.561 5.561 0 01-2.95-.76 4.943 4.943 0 01-1.91-2.21v-8.08a4.926 4.926 0 014.83-3.23 4.28 4.28 0 013.69 1.869 8.711 8.711 0 011.32 5.091 9.529 9.529 0 01-1.31 5.45zM529.764 118.998h1.87v23.92h-1.87zM548.624 128.109a6.942 6.942 0 00-5.45-2.36 7.1 7.1 0 00-6.56 4.12 9.817 9.817 0 00-.94 4.37v.38a9.062 9.062 0 002.09 6.25 6.956 6.956 0 005.44 2.36 7.315 7.315 0 003.909-1.06 7.106 7.106 0 002.661-3.01c.638-1.381.96-2.888.94-4.41v-.38a9.124 9.124 0 00-2.09-6.26zm.23 6.49a7.947 7.947 0 01-1.56 5.12 5.312 5.312 0 01-8.19 0 7.699 7.699 0 01-1.57-4.97v-.34a7.895 7.895 0 011.58-5.11 4.988 4.988 0 014.06-1.96 5.189 5.189 0 012.96.88 5.827 5.827 0 012.01 2.49 8.517 8.517 0 01.71 3.53v.36zM564.053 140.559a4.949 4.949 0 01-3.269 1.09 4.69 4.69 0 01-3.93-1.8 8.064 8.064 0 01-1.39-5.03v-.55a8.25 8.25 0 011.39-5.11 5.08 5.08 0 017.2-.6 4.586 4.586 0 011.42 3.19h1.79a6.025 6.025 0 00-1.92-4.35 6.535 6.535 0 00-4.57-1.65 6.883 6.883 0 00-3.81 1.05 6.685 6.685 0 00-2.5 2.96 10.476 10.476 0 00-.87 4.4v.56a9.31 9.31 0 001.94 6.2 6.494 6.494 0 005.25 2.31 7.09 7.09 0 003.16-.72 6.123 6.123 0 002.36-1.99 5.242 5.242 0 00.96-2.81h-1.79a3.897 3.897 0 01-1.421 2.85zM582.354 127.279a5.06 5.06 0 00-4.04-1.53 6.112 6.112 0 00-3.12.83 6.599 6.599 0 00-2.36 2.34v-9.92h-1.85v23.92h1.85v-11.54a6.397 6.397 0 011.97-2.92 4.737 4.737 0 013.06-1.09 3.762 3.762 0 013.019 1.11c.7.974 1.036 2.164.951 3.36v11.08h1.86v-11.06a6.897 6.897 0 00-1.341-4.58zM595.914 118.999l-2.97 4.35 1.63.01 3.6-4.36h-2.26zm2.84 7.07l-4.92 14.169-5.24-14.17h-2.04l6.36 16.701-.83 2.28a5.076 5.076 0 01-1.44 2.33c-.64.473-1.425.71-2.22.67l-.96-.091.01 1.54c.467.143.952.217 1.44.22 1.93 0 3.35-1.02 4.28-3.07l.37-.87 7.2-19.71-2.01.001zM613.133 140.559a4.948 4.948 0 01-3.26 1.09c-1.527.078-3-.595-3.94-1.8a8.134 8.134 0 01-1.39-5.03v-.55a8.327 8.327 0 011.39-5.11 5.081 5.081 0 017.2-.6 4.582 4.582 0 011.42 3.19h1.79a6.017 6.017 0 00-1.92-4.35 6.534 6.534 0 00-4.57-1.65 6.883 6.883 0 00-3.81 1.05 6.758 6.758 0 00-2.5 2.96 10.508 10.508 0 00-.87 4.4v.56a9.322 9.322 0 001.94 6.2 6.517 6.517 0 005.26 2.31 7.072 7.072 0 003.15-.72 6.045 6.045 0 002.36-1.99 5.234 5.234 0 00.96-2.81h-1.79a3.855 3.855 0 01-1.42 2.85zM631.434 127.279a5.038 5.038 0 00-4.03-1.53 6.15 6.15 0 00-3.13.83 6.5 6.5 0 00-2.35 2.34v-9.92h-1.85v23.92h1.85v-11.54a6.248 6.248 0 011.97-2.92 4.718 4.718 0 013.06-1.09 3.743 3.743 0 013.01 1.11 5.143 5.143 0 01.96 3.36v11.08h1.85v-11.06a6.902 6.902 0 00-1.34-4.58zM656.693 136.309a4.823 4.823 0 00-1.82-1.57 15.276 15.276 0 00-3.67-1.23 9.844 9.844 0 01-3.38-1.27 2.29 2.29 0 01-.93-1.95 2.552 2.552 0 011.12-2.13 4.881 4.881 0 012.95-.82 4.83 4.83 0 013.12.99 2.991 2.991 0 011.24 2.45h1.87a4.463 4.463 0 00-1.71-3.63 6.91 6.91 0 00-4.52-1.4 6.727 6.727 0 00-4.27 1.31 3.99 3.99 0 00-1.66 3.29c-.023.76.187 1.511.6 2.15a4.684 4.684 0 001.83 1.5 15.49 15.49 0 003.48 1.09 8.605 8.605 0 013.36 1.32 2.649 2.649 0 011.11 2.22 2.57 2.57 0 01-1.2 2.17 5.286 5.286 0 01-3.14.85 5.646 5.646 0 01-3.36-.91 3.264 3.264 0 01-1.38-2.54h-1.86a4.377 4.377 0 001.82 3.6 7.6 7.6 0 004.78 1.43 7.355 7.355 0 004.49-1.28 4.033 4.033 0 001.72-3.41 4.088 4.088 0 00-.59-2.23zM668.074 141.449c-.499.089-1.004.142-1.51.16a1.962 1.962 0 01-1.69-.69 3.497 3.497 0 01-.5-2.09v-11.24h3.48v-1.52h-3.48v-4.32h-1.87v4.32h-3.1v1.52h3.1v11.24a5.24 5.24 0 00.87 3.28 3.308 3.308 0 002.79 1.12 5.936 5.936 0 001.99-.27l-.08-1.51zM678.324 125.749a4.966 4.966 0 00-4.75 3l-.03-2.68h-1.82v16.85h1.85v-11.581a5.346 5.346 0 011.72-2.82 4.553 4.553 0 012.95-.969c.422-.006.844.031 1.26.109l.05-1.7a2.975 2.975 0 00-1.23-.21zm.03-6.53l-2.68 3.02-2.67-3.02h-1.67v.17l3.67 4.07h1.34l3.68-4.06v-.18h-1.67zM695.293 134.619v-1.05a8.486 8.486 0 00-1.8-5.72 6.074 6.074 0 00-4.86-2.1c-1.301 0-2.572.39-3.65 1.12a7.487 7.487 0 00-2.62 3.06 9.872 9.872 0 00-.94 4.37v.67a9.278 9.278 0 00.96 4.25 7.234 7.234 0 006.59 4.01 6.782 6.782 0 005.96-2.98l-1.16-.89a5.933 5.933 0 01-2.08 1.75 6.184 6.184 0 01-2.64.54 5.25 5.25 0 01-4.14-1.9 7.121 7.121 0 01-1.64-4.78v-.35h12.02zm-10.21-5.73a4.662 4.662 0 013.55-1.55 4.279 4.279 0 013.42 1.53 6.199 6.199 0 011.39 3.96v.2h-10.11a7.095 7.095 0 011.75-4.14zM708.414 140.559a4.925 4.925 0 01-3.26 1.09 4.69 4.69 0 01-3.93-1.8 8.056 8.056 0 01-1.4-5.03v-.55a8.248 8.248 0 011.4-5.11 5.07 5.07 0 017.19-.6 4.546 4.546 0 011.42 3.19h1.8a6.074 6.074 0 00-1.93-4.35 6.525 6.525 0 00-4.57-1.65 6.88 6.88 0 00-3.81 1.05 6.668 6.668 0 00-2.49 2.96 10.339 10.339 0 00-.88 4.4v.56a9.31 9.31 0 001.94 6.2 6.527 6.527 0 005.26 2.31 7.078 7.078 0 003.15-.72 6.052 6.052 0 002.36-1.99 5.341 5.341 0 00.97-2.81h-1.8a3.862 3.862 0 01-1.42 2.85zM726.724 127.279a5.071 5.071 0 00-4.04-1.53 6.114 6.114 0 00-3.12.83 6.512 6.512 0 00-2.36 2.34v-9.92h-1.85v23.92h1.85v-11.54a6.392 6.392 0 011.97-2.92 4.737 4.737 0 013.06-1.09 3.765 3.765 0 013.02 1.11 5.203 5.203 0 01.95 3.36v11.08h1.86v-11.06a6.902 6.902 0 00-1.34-4.58zM0 44.14v88.28l.01-88.27v-.01H0zM62.543 41.759a19.682 19.682 0 0013.92 5.77c8.858 0 16.675-5.981 18.99-14.53 5.23 3.07 7.86 7.11 7.86 11.14 0 4.08-2.67 8.14-7.99 11.23-5.19 3.01-12.03 4.51-18.87 4.51-6.84 0-13.68-1.5-18.87-4.51-10.6-6.15-10.64-16.2-.12-22.37a19.611 19.611 0 005.08 8.76z"/><path d="M76.47.01l13.91 13.91a19.515 19.515 0 015.24 9.43 45.32 45.32 0 019.13 3.95c7.99 4.64 11.98 10.74 11.98 16.84 0 6.11-3.99 12.21-11.98 16.84-7.78 4.52-18.04 6.77-28.3 6.77-10.25 0-20.51-2.25-28.3-6.77-15.97-9.26-15.97-24.41 0-33.68a45.706 45.706 0 019.14-3.95 19.624 19.624 0 015.25-9.43L76.46 0h-.01L.01 44.14v.01L0 132.42l76.45 44.14h.01v-.01l76.44-44.13V44.14L76.47.01zM54.65 143.34l-10.52-6.07-7.19-20.78-5.31-3.07v16.63l-9.82-5.67V77.36l16.03 9.25a33.702 33.702 0 0111.33 10.25 22.657 22.657 0 014.08 12.84c0 3.27-.573 5.65-1.72 7.14-1.15 1.49-2.943 2.196-5.38 2.12l8.5 23.9v.48zm65.47-12.62l-8.67-12.5-4.03 7.43v12.4l-9.82 5.67V96.7l9.82-5.67v20.73l3.41-7.94 8.79-19.83 12.13-7.01-13.76 28.74L131.76 124l-11.64 6.72z"/><path d="M103.314 44.139c0 4.08-2.67 8.14-7.99 11.23-5.19 3.01-12.03 4.51-18.87 4.51-6.84 0-13.68-1.5-18.87-4.51-10.6-6.15-10.64-16.2-.12-22.37 2.317 8.55 10.135 14.533 18.995 14.533 8.859 0 16.677-5.983 18.995-14.533 5.23 3.07 7.86 7.11 7.86 11.14zM42.034 99.489a11.193 11.193 0 011.43 5.59c0 2.03-.47 3.34-1.41 3.93-.94.59-2.35.35-4.21-.73l-6.21-3.58v-12.95l6.21 3.58a10.89 10.89 0 014.19 4.16zM76.46 176.55v.01l76.44-44.14-76.44 44.13zM152.9 44.14v88.28h.01l-.01-88.28z"/></g></svg>